<mxfile host="app.diagrams.net" modified="2023-10-06T09:49:31.275Z" agent="Mozilla/5.0 (Windows NT 10.0; Win64; x64) AppleWebKit/537.36 (KHTML, like Gecko) Chrome/116.0.0.0 Safari/537.36 OPR/102.0.0.0 (Edition std-1)" etag="eEQrCSbcA7IJMkOKIkXe" version="22.0.3" type="github" pages="7">
  <diagram id="C5RBs43oDa-KdzZeNtuy" name="Page-1">
    <mxGraphModel dx="2860" dy="2333" grid="1" gridSize="10" guides="1" tooltips="1" connect="1" arrows="1" fold="1" page="1" pageScale="1" pageWidth="827" pageHeight="1169" math="0" shadow="1">
      <root>
        <mxCell id="WIyWlLk6GJQsqaUBKTNV-0" />
        <mxCell id="WIyWlLk6GJQsqaUBKTNV-1" parent="WIyWlLk6GJQsqaUBKTNV-0" />
        <mxCell id="bpjZJ4Prwg0HTMOpsLSU-28" style="edgeStyle=orthogonalEdgeStyle;rounded=0;orthogonalLoop=1;jettySize=auto;html=1;exitX=0.5;exitY=1;exitDx=0;exitDy=0;" parent="WIyWlLk6GJQsqaUBKTNV-1" source="bpjZJ4Prwg0HTMOpsLSU-13" edge="1">
          <mxGeometry relative="1" as="geometry">
            <mxPoint x="360" y="690" as="targetPoint" />
          </mxGeometry>
        </mxCell>
        <mxCell id="bpjZJ4Prwg0HTMOpsLSU-144" style="edgeStyle=orthogonalEdgeStyle;rounded=0;orthogonalLoop=1;jettySize=auto;html=1;exitDx=0;exitDy=0;endArrow=none;endFill=0;" parent="WIyWlLk6GJQsqaUBKTNV-1" edge="1">
          <mxGeometry relative="1" as="geometry">
            <mxPoint x="235" y="610" as="sourcePoint" />
            <mxPoint x="235" y="860" as="targetPoint" />
          </mxGeometry>
        </mxCell>
        <mxCell id="bpjZJ4Prwg0HTMOpsLSU-13" value="extract subdataset characteristics" style="rounded=0;whiteSpace=wrap;html=1;" parent="WIyWlLk6GJQsqaUBKTNV-1" vertex="1">
          <mxGeometry x="300" y="580" width="120" height="60" as="geometry" />
        </mxCell>
        <mxCell id="bpjZJ4Prwg0HTMOpsLSU-20" style="edgeStyle=orthogonalEdgeStyle;rounded=0;orthogonalLoop=1;jettySize=auto;html=1;exitX=0.5;exitY=1;exitDx=0;exitDy=0;entryX=0.5;entryY=0;entryDx=0;entryDy=0;" parent="WIyWlLk6GJQsqaUBKTNV-1" source="bpjZJ4Prwg0HTMOpsLSU-16" target="bpjZJ4Prwg0HTMOpsLSU-19" edge="1">
          <mxGeometry relative="1" as="geometry" />
        </mxCell>
        <mxCell id="bpjZJ4Prwg0HTMOpsLSU-21" style="edgeStyle=orthogonalEdgeStyle;rounded=0;orthogonalLoop=1;jettySize=auto;html=1;exitX=0.5;exitY=1;exitDx=0;exitDy=0;entryX=0.5;entryY=0;entryDx=0;entryDy=0;" parent="WIyWlLk6GJQsqaUBKTNV-1" source="bpjZJ4Prwg0HTMOpsLSU-19" edge="1">
          <mxGeometry relative="1" as="geometry">
            <mxPoint x="360" y="380" as="targetPoint" />
          </mxGeometry>
        </mxCell>
        <mxCell id="bpjZJ4Prwg0HTMOpsLSU-25" value="query" style="edgeLabel;html=1;align=center;verticalAlign=middle;resizable=0;points=[];" parent="bpjZJ4Prwg0HTMOpsLSU-21" vertex="1" connectable="0">
          <mxGeometry x="-0.2067" y="1" relative="1" as="geometry">
            <mxPoint as="offset" />
          </mxGeometry>
        </mxCell>
        <mxCell id="bpjZJ4Prwg0HTMOpsLSU-19" value="construct set of SQL query keywords" style="verticalLabelPosition=middle;verticalAlign=middle;html=1;shape=trapezoid;perimeter=trapezoidPerimeter;whiteSpace=wrap;size=0.23;arcSize=10;flipV=1;labelPosition=center;align=center;" parent="WIyWlLk6GJQsqaUBKTNV-1" vertex="1">
          <mxGeometry x="295" y="230" width="130" height="90" as="geometry" />
        </mxCell>
        <mxCell id="bpjZJ4Prwg0HTMOpsLSU-26" style="edgeStyle=orthogonalEdgeStyle;rounded=0;orthogonalLoop=1;jettySize=auto;html=1;exitX=0.5;exitY=1;exitDx=0;exitDy=0;exitPerimeter=0;entryX=0.5;entryY=0;entryDx=0;entryDy=0;" parent="WIyWlLk6GJQsqaUBKTNV-1" source="bpjZJ4Prwg0HTMOpsLSU-22" target="bpjZJ4Prwg0HTMOpsLSU-13" edge="1">
          <mxGeometry relative="1" as="geometry" />
        </mxCell>
        <mxCell id="bpjZJ4Prwg0HTMOpsLSU-22" value="AIP" style="strokeWidth=2;html=1;shape=mxgraph.flowchart.database;whiteSpace=wrap;" parent="WIyWlLk6GJQsqaUBKTNV-1" vertex="1">
          <mxGeometry x="330" y="380" width="60" height="60" as="geometry" />
        </mxCell>
        <mxCell id="bpjZJ4Prwg0HTMOpsLSU-23" value="paper subdataset" style="strokeWidth=2;html=1;shape=mxgraph.flowchart.multi-document;whiteSpace=wrap;" parent="WIyWlLk6GJQsqaUBKTNV-1" vertex="1">
          <mxGeometry x="316" y="470" width="88" height="60" as="geometry" />
        </mxCell>
        <mxCell id="bpjZJ4Prwg0HTMOpsLSU-31" style="edgeStyle=orthogonalEdgeStyle;rounded=0;orthogonalLoop=1;jettySize=auto;html=1;exitX=1;exitY=0.5;exitDx=0;exitDy=0;exitPerimeter=0;entryX=1;entryY=0.5;entryDx=0;entryDy=0;" parent="WIyWlLk6GJQsqaUBKTNV-1" source="bpjZJ4Prwg0HTMOpsLSU-29" target="bpjZJ4Prwg0HTMOpsLSU-19" edge="1">
          <mxGeometry relative="1" as="geometry">
            <Array as="points">
              <mxPoint x="520" y="740" />
              <mxPoint x="520" y="275" />
            </Array>
          </mxGeometry>
        </mxCell>
        <mxCell id="bpjZJ4Prwg0HTMOpsLSU-32" value="yes" style="edgeLabel;html=1;align=center;verticalAlign=middle;resizable=0;points=[];fontSize=17;" parent="bpjZJ4Prwg0HTMOpsLSU-31" vertex="1" connectable="0">
          <mxGeometry x="0.1037" y="-2" relative="1" as="geometry">
            <mxPoint as="offset" />
          </mxGeometry>
        </mxCell>
        <mxCell id="bpjZJ4Prwg0HTMOpsLSU-71" style="edgeStyle=orthogonalEdgeStyle;rounded=0;orthogonalLoop=1;jettySize=auto;html=1;exitDx=0;exitDy=0;exitPerimeter=0;" parent="WIyWlLk6GJQsqaUBKTNV-1" edge="1">
          <mxGeometry relative="1" as="geometry">
            <mxPoint x="360" y="850" as="targetPoint" />
            <mxPoint x="360" y="850" as="sourcePoint" />
          </mxGeometry>
        </mxCell>
        <mxCell id="bpjZJ4Prwg0HTMOpsLSU-147" style="edgeStyle=orthogonalEdgeStyle;rounded=0;orthogonalLoop=1;jettySize=auto;html=1;exitX=0.5;exitY=1;exitDx=0;exitDy=0;exitPerimeter=0;entryX=0.6;entryY=0.15;entryDx=0;entryDy=0;entryPerimeter=0;endArrow=none;endFill=0;" parent="WIyWlLk6GJQsqaUBKTNV-1" source="bpjZJ4Prwg0HTMOpsLSU-29" edge="1">
          <mxGeometry relative="1" as="geometry">
            <mxPoint x="360" y="860" as="targetPoint" />
          </mxGeometry>
        </mxCell>
        <mxCell id="bpjZJ4Prwg0HTMOpsLSU-29" value="number of &lt;br&gt;papers &lt;br&gt;too low ?" style="strokeWidth=2;html=1;shape=mxgraph.flowchart.decision;whiteSpace=wrap;" parent="WIyWlLk6GJQsqaUBKTNV-1" vertex="1">
          <mxGeometry x="310" y="690" width="100" height="100" as="geometry" />
        </mxCell>
        <mxCell id="bpjZJ4Prwg0HTMOpsLSU-210" style="edgeStyle=orthogonalEdgeStyle;rounded=0;orthogonalLoop=1;jettySize=auto;html=1;exitX=0.5;exitY=1;exitDx=0;exitDy=0;entryX=0.5;entryY=0;entryDx=0;entryDy=0;entryPerimeter=0;" parent="WIyWlLk6GJQsqaUBKTNV-1" source="bpjZJ4Prwg0HTMOpsLSU-34" target="bpjZJ4Prwg0HTMOpsLSU-203" edge="1">
          <mxGeometry relative="1" as="geometry" />
        </mxCell>
        <mxCell id="bpjZJ4Prwg0HTMOpsLSU-34" value="determine weight for citations in &lt;br&gt;importance &lt;br&gt;metric" style="verticalLabelPosition=middle;verticalAlign=middle;html=1;shape=trapezoid;perimeter=trapezoidPerimeter;whiteSpace=wrap;size=0.23;arcSize=10;flipV=1;labelPosition=center;align=center;" parent="WIyWlLk6GJQsqaUBKTNV-1" vertex="1">
          <mxGeometry x="170" y="880" width="130" height="90" as="geometry" />
        </mxCell>
        <mxCell id="bpjZJ4Prwg0HTMOpsLSU-132" style="edgeStyle=orthogonalEdgeStyle;rounded=0;orthogonalLoop=1;jettySize=auto;html=1;exitX=1;exitY=0.5;exitDx=0;exitDy=0;entryX=0.5;entryY=0;entryDx=0;entryDy=0;entryPerimeter=0;" parent="WIyWlLk6GJQsqaUBKTNV-1" source="bpjZJ4Prwg0HTMOpsLSU-42" target="bpjZJ4Prwg0HTMOpsLSU-128" edge="1">
          <mxGeometry relative="1" as="geometry" />
        </mxCell>
        <mxCell id="bpjZJ4Prwg0HTMOpsLSU-42" value="determine &lt;br&gt;parameters &lt;br&gt;for LDA model" style="verticalLabelPosition=middle;verticalAlign=middle;html=1;shape=trapezoid;perimeter=trapezoidPerimeter;whiteSpace=wrap;size=0.23;arcSize=10;flipV=1;labelPosition=center;align=center;" parent="WIyWlLk6GJQsqaUBKTNV-1" vertex="1">
          <mxGeometry x="420" y="880" width="130" height="90" as="geometry" />
        </mxCell>
        <mxCell id="bpjZJ4Prwg0HTMOpsLSU-158" style="edgeStyle=orthogonalEdgeStyle;rounded=0;orthogonalLoop=1;jettySize=auto;html=1;exitX=1;exitY=0.5;exitDx=0;exitDy=0;entryX=0;entryY=0.5;entryDx=0;entryDy=0;entryPerimeter=0;" parent="WIyWlLk6GJQsqaUBKTNV-1" source="bpjZJ4Prwg0HTMOpsLSU-212" target="bpjZJ4Prwg0HTMOpsLSU-156" edge="1">
          <mxGeometry relative="1" as="geometry" />
        </mxCell>
        <mxCell id="bpjZJ4Prwg0HTMOpsLSU-152" style="edgeStyle=orthogonalEdgeStyle;rounded=0;orthogonalLoop=1;jettySize=auto;html=1;exitX=0.5;exitY=1;exitDx=0;exitDy=0;entryX=0;entryY=0.5;entryDx=0;entryDy=0;entryPerimeter=0;" parent="WIyWlLk6GJQsqaUBKTNV-1" source="bpjZJ4Prwg0HTMOpsLSU-52" target="bpjZJ4Prwg0HTMOpsLSU-151" edge="1">
          <mxGeometry relative="1" as="geometry" />
        </mxCell>
        <mxCell id="bpjZJ4Prwg0HTMOpsLSU-52" value="number of topics" style="html=1;strokeWidth=2;shape=manualInput;whiteSpace=wrap;rounded=1;size=26;arcSize=11;" parent="WIyWlLk6GJQsqaUBKTNV-1" vertex="1">
          <mxGeometry x="460" y="1070" width="100" height="60" as="geometry" />
        </mxCell>
        <mxCell id="bpjZJ4Prwg0HTMOpsLSU-155" style="edgeStyle=orthogonalEdgeStyle;rounded=0;orthogonalLoop=1;jettySize=auto;html=1;exitX=0.5;exitY=1;exitDx=0;exitDy=0;entryX=1;entryY=0.5;entryDx=0;entryDy=0;entryPerimeter=0;" parent="WIyWlLk6GJQsqaUBKTNV-1" source="bpjZJ4Prwg0HTMOpsLSU-53" target="bpjZJ4Prwg0HTMOpsLSU-151" edge="1">
          <mxGeometry relative="1" as="geometry" />
        </mxCell>
        <mxCell id="bpjZJ4Prwg0HTMOpsLSU-53" value="passes" style="html=1;strokeWidth=2;shape=manualInput;whiteSpace=wrap;rounded=1;size=26;arcSize=11;" parent="WIyWlLk6GJQsqaUBKTNV-1" vertex="1">
          <mxGeometry x="727" y="1070" width="100" height="60" as="geometry" />
        </mxCell>
        <mxCell id="bpjZJ4Prwg0HTMOpsLSU-153" style="edgeStyle=orthogonalEdgeStyle;rounded=0;orthogonalLoop=1;jettySize=auto;html=1;exitX=0.5;exitY=1;exitDx=0;exitDy=0;entryX=0.5;entryY=0;entryDx=0;entryDy=0;entryPerimeter=0;" parent="WIyWlLk6GJQsqaUBKTNV-1" source="bpjZJ4Prwg0HTMOpsLSU-55" target="bpjZJ4Prwg0HTMOpsLSU-151" edge="1">
          <mxGeometry relative="1" as="geometry" />
        </mxCell>
        <mxCell id="bpjZJ4Prwg0HTMOpsLSU-55" value="iterations" style="html=1;strokeWidth=2;shape=manualInput;whiteSpace=wrap;rounded=1;size=26;arcSize=11;" parent="WIyWlLk6GJQsqaUBKTNV-1" vertex="1">
          <mxGeometry x="590" y="1070" width="100" height="60" as="geometry" />
        </mxCell>
        <mxCell id="bpjZJ4Prwg0HTMOpsLSU-166" style="edgeStyle=orthogonalEdgeStyle;rounded=0;orthogonalLoop=1;jettySize=auto;html=1;exitX=0.5;exitY=1;exitDx=0;exitDy=0;entryX=1;entryY=0.5;entryDx=0;entryDy=0;entryPerimeter=0;" parent="WIyWlLk6GJQsqaUBKTNV-1" source="bpjZJ4Prwg0HTMOpsLSU-56" target="bpjZJ4Prwg0HTMOpsLSU-102" edge="1">
          <mxGeometry relative="1" as="geometry" />
        </mxCell>
        <mxCell id="bpjZJ4Prwg0HTMOpsLSU-56" value="number of models" style="html=1;strokeWidth=2;shape=manualInput;whiteSpace=wrap;rounded=1;size=26;arcSize=11;" parent="WIyWlLk6GJQsqaUBKTNV-1" vertex="1">
          <mxGeometry x="860" y="1070" width="100" height="60" as="geometry" />
        </mxCell>
        <mxCell id="bpjZJ4Prwg0HTMOpsLSU-57" value="&amp;nbsp; &amp;nbsp; &amp;nbsp; &amp;nbsp; &amp;nbsp; &amp;nbsp; &amp;nbsp; &amp;nbsp; weights &lt;br&gt;in imprtance &lt;br&gt;metric term" style="html=1;strokeWidth=2;shape=manualInput;whiteSpace=wrap;rounded=1;size=26;arcSize=11;" parent="WIyWlLk6GJQsqaUBKTNV-1" vertex="1">
          <mxGeometry x="185" y="2470" width="100" height="60" as="geometry" />
        </mxCell>
        <mxCell id="bpjZJ4Prwg0HTMOpsLSU-164" style="edgeStyle=orthogonalEdgeStyle;rounded=0;orthogonalLoop=1;jettySize=auto;html=1;exitX=0;exitY=0.5;exitDx=0;exitDy=0;exitPerimeter=0;entryX=0;entryY=0.5;entryDx=0;entryDy=0;" parent="WIyWlLk6GJQsqaUBKTNV-1" source="bpjZJ4Prwg0HTMOpsLSU-102" target="bpjZJ4Prwg0HTMOpsLSU-134" edge="1">
          <mxGeometry relative="1" as="geometry">
            <Array as="points">
              <mxPoint x="550" y="1824" />
              <mxPoint x="550" y="1484" />
            </Array>
          </mxGeometry>
        </mxCell>
        <mxCell id="bpjZJ4Prwg0HTMOpsLSU-174" value="&lt;font style=&quot;font-size: 17px;&quot;&gt;No&lt;/font&gt;" style="edgeLabel;html=1;align=center;verticalAlign=middle;resizable=0;points=[];" parent="bpjZJ4Prwg0HTMOpsLSU-164" vertex="1" connectable="0">
          <mxGeometry y="-1" relative="1" as="geometry">
            <mxPoint y="-30" as="offset" />
          </mxGeometry>
        </mxCell>
        <mxCell id="bpjZJ4Prwg0HTMOpsLSU-277" style="edgeStyle=orthogonalEdgeStyle;rounded=0;orthogonalLoop=1;jettySize=auto;html=1;exitX=0.5;exitY=1;exitDx=0;exitDy=0;exitPerimeter=0;entryX=0.5;entryY=0;entryDx=0;entryDy=0;" parent="WIyWlLk6GJQsqaUBKTNV-1" source="bpjZJ4Prwg0HTMOpsLSU-102" target="bpjZJ4Prwg0HTMOpsLSU-273" edge="1">
          <mxGeometry relative="1" as="geometry" />
        </mxCell>
        <mxCell id="bpjZJ4Prwg0HTMOpsLSU-102" value="== number of models ?" style="strokeWidth=2;html=1;shape=mxgraph.flowchart.decision;whiteSpace=wrap;" parent="WIyWlLk6GJQsqaUBKTNV-1" vertex="1">
          <mxGeometry x="590" y="1774" width="100" height="100" as="geometry" />
        </mxCell>
        <mxCell id="bpjZJ4Prwg0HTMOpsLSU-129" style="edgeStyle=orthogonalEdgeStyle;rounded=0;orthogonalLoop=1;jettySize=auto;html=1;entryX=0.5;entryY=0;entryDx=0;entryDy=0;" parent="WIyWlLk6GJQsqaUBKTNV-1" source="bpjZJ4Prwg0HTMOpsLSU-128" target="bpjZJ4Prwg0HTMOpsLSU-52" edge="1">
          <mxGeometry relative="1" as="geometry" />
        </mxCell>
        <mxCell id="bpjZJ4Prwg0HTMOpsLSU-130" style="edgeStyle=orthogonalEdgeStyle;rounded=0;orthogonalLoop=1;jettySize=auto;html=1;exitX=0.5;exitY=1;exitDx=0;exitDy=0;exitPerimeter=0;entryX=0.5;entryY=0;entryDx=0;entryDy=0;" parent="WIyWlLk6GJQsqaUBKTNV-1" source="bpjZJ4Prwg0HTMOpsLSU-128" target="bpjZJ4Prwg0HTMOpsLSU-55" edge="1">
          <mxGeometry relative="1" as="geometry" />
        </mxCell>
        <mxCell id="bpjZJ4Prwg0HTMOpsLSU-131" style="edgeStyle=orthogonalEdgeStyle;rounded=0;orthogonalLoop=1;jettySize=auto;html=1;exitX=0.78;exitY=0.5;exitDx=0;exitDy=0;exitPerimeter=0;entryX=0.5;entryY=0;entryDx=0;entryDy=0;" parent="WIyWlLk6GJQsqaUBKTNV-1" source="bpjZJ4Prwg0HTMOpsLSU-128" target="bpjZJ4Prwg0HTMOpsLSU-53" edge="1">
          <mxGeometry relative="1" as="geometry" />
        </mxCell>
        <mxCell id="bpjZJ4Prwg0HTMOpsLSU-165" style="edgeStyle=orthogonalEdgeStyle;rounded=0;orthogonalLoop=1;jettySize=auto;html=1;exitX=0.78;exitY=0.5;exitDx=0;exitDy=0;exitPerimeter=0;entryX=0.5;entryY=0;entryDx=0;entryDy=0;" parent="WIyWlLk6GJQsqaUBKTNV-1" source="bpjZJ4Prwg0HTMOpsLSU-128" target="bpjZJ4Prwg0HTMOpsLSU-56" edge="1">
          <mxGeometry relative="1" as="geometry" />
        </mxCell>
        <mxCell id="bpjZJ4Prwg0HTMOpsLSU-128" value="" style="strokeWidth=2;html=1;shape=mxgraph.flowchart.extract_or_measurement;whiteSpace=wrap;" parent="WIyWlLk6GJQsqaUBKTNV-1" vertex="1">
          <mxGeometry x="618" y="1010" width="44" height="25" as="geometry" />
        </mxCell>
        <mxCell id="bpjZJ4Prwg0HTMOpsLSU-138" style="edgeStyle=orthogonalEdgeStyle;rounded=0;orthogonalLoop=1;jettySize=auto;html=1;exitX=0.5;exitY=1;exitDx=0;exitDy=0;entryX=0.5;entryY=0;entryDx=0;entryDy=0;" parent="WIyWlLk6GJQsqaUBKTNV-1" source="bpjZJ4Prwg0HTMOpsLSU-133" target="bpjZJ4Prwg0HTMOpsLSU-134" edge="1">
          <mxGeometry relative="1" as="geometry" />
        </mxCell>
        <mxCell id="bpjZJ4Prwg0HTMOpsLSU-133" value="start ATM construction" style="shape=loopLimit;whiteSpace=wrap;html=1;" parent="WIyWlLk6GJQsqaUBKTNV-1" vertex="1">
          <mxGeometry x="590" y="1374" width="100" height="60" as="geometry" />
        </mxCell>
        <mxCell id="bpjZJ4Prwg0HTMOpsLSU-170" style="edgeStyle=orthogonalEdgeStyle;rounded=0;orthogonalLoop=1;jettySize=auto;html=1;exitX=0.5;exitY=1;exitDx=0;exitDy=0;entryX=0.5;entryY=0;entryDx=0;entryDy=0;" parent="WIyWlLk6GJQsqaUBKTNV-1" source="bpjZJ4Prwg0HTMOpsLSU-134" target="bpjZJ4Prwg0HTMOpsLSU-168" edge="1">
          <mxGeometry relative="1" as="geometry" />
        </mxCell>
        <mxCell id="bpjZJ4Prwg0HTMOpsLSU-134" value="make LDA model" style="rounded=0;whiteSpace=wrap;html=1;" parent="WIyWlLk6GJQsqaUBKTNV-1" vertex="1">
          <mxGeometry x="580" y="1454" width="120" height="60" as="geometry" />
        </mxCell>
        <mxCell id="bpjZJ4Prwg0HTMOpsLSU-148" style="edgeStyle=orthogonalEdgeStyle;rounded=0;orthogonalLoop=1;jettySize=auto;html=1;entryX=0.9;entryY=0.4;entryDx=0;entryDy=0;entryPerimeter=0;endArrow=none;endFill=0;" parent="WIyWlLk6GJQsqaUBKTNV-1" edge="1">
          <mxGeometry relative="1" as="geometry">
            <mxPoint x="360" y="860" as="sourcePoint" />
            <mxPoint x="235" y="860" as="targetPoint" />
          </mxGeometry>
        </mxCell>
        <mxCell id="bpjZJ4Prwg0HTMOpsLSU-149" style="edgeStyle=orthogonalEdgeStyle;rounded=0;orthogonalLoop=1;jettySize=auto;html=1;entryX=0.2;entryY=0.55;entryDx=0;entryDy=0;entryPerimeter=0;endArrow=none;endFill=0;" parent="WIyWlLk6GJQsqaUBKTNV-1" edge="1">
          <mxGeometry relative="1" as="geometry">
            <mxPoint x="360" y="860" as="sourcePoint" />
            <mxPoint x="485" y="860" as="targetPoint" />
          </mxGeometry>
        </mxCell>
        <mxCell id="bpjZJ4Prwg0HTMOpsLSU-146" style="edgeStyle=orthogonalEdgeStyle;rounded=0;orthogonalLoop=1;jettySize=auto;html=1;entryX=0.5;entryY=0;entryDx=0;entryDy=0;" parent="WIyWlLk6GJQsqaUBKTNV-1" target="bpjZJ4Prwg0HTMOpsLSU-34" edge="1">
          <mxGeometry relative="1" as="geometry">
            <mxPoint x="235" y="860" as="sourcePoint" />
          </mxGeometry>
        </mxCell>
        <mxCell id="bpjZJ4Prwg0HTMOpsLSU-150" style="edgeStyle=orthogonalEdgeStyle;rounded=0;orthogonalLoop=1;jettySize=auto;html=1;entryX=0.5;entryY=0;entryDx=0;entryDy=0;" parent="WIyWlLk6GJQsqaUBKTNV-1" target="bpjZJ4Prwg0HTMOpsLSU-42" edge="1">
          <mxGeometry relative="1" as="geometry">
            <mxPoint x="485" y="860" as="sourcePoint" />
          </mxGeometry>
        </mxCell>
        <mxCell id="bpjZJ4Prwg0HTMOpsLSU-159" style="edgeStyle=orthogonalEdgeStyle;rounded=0;orthogonalLoop=1;jettySize=auto;html=1;exitX=0.5;exitY=1;exitDx=0;exitDy=0;exitPerimeter=0;entryX=0.5;entryY=0;entryDx=0;entryDy=0;entryPerimeter=0;" parent="WIyWlLk6GJQsqaUBKTNV-1" source="bpjZJ4Prwg0HTMOpsLSU-151" target="bpjZJ4Prwg0HTMOpsLSU-156" edge="1">
          <mxGeometry relative="1" as="geometry" />
        </mxCell>
        <mxCell id="bpjZJ4Prwg0HTMOpsLSU-151" value="" style="strokeWidth=2;html=1;shape=mxgraph.flowchart.merge_or_storage;whiteSpace=wrap;" parent="WIyWlLk6GJQsqaUBKTNV-1" vertex="1">
          <mxGeometry x="620" y="1169" width="40" height="30" as="geometry" />
        </mxCell>
        <mxCell id="bpjZJ4Prwg0HTMOpsLSU-160" style="edgeStyle=orthogonalEdgeStyle;rounded=0;orthogonalLoop=1;jettySize=auto;html=1;exitX=0.5;exitY=1;exitDx=0;exitDy=0;exitPerimeter=0;entryX=0.5;entryY=0;entryDx=0;entryDy=0;" parent="WIyWlLk6GJQsqaUBKTNV-1" source="bpjZJ4Prwg0HTMOpsLSU-156" target="bpjZJ4Prwg0HTMOpsLSU-133" edge="1">
          <mxGeometry relative="1" as="geometry" />
        </mxCell>
        <mxCell id="bpjZJ4Prwg0HTMOpsLSU-156" value="" style="strokeWidth=2;html=1;shape=mxgraph.flowchart.merge_or_storage;whiteSpace=wrap;" parent="WIyWlLk6GJQsqaUBKTNV-1" vertex="1">
          <mxGeometry x="620" y="1280" width="40" height="30" as="geometry" />
        </mxCell>
        <mxCell id="bpjZJ4Prwg0HTMOpsLSU-173" style="edgeStyle=orthogonalEdgeStyle;rounded=0;orthogonalLoop=1;jettySize=auto;html=1;exitX=0.5;exitY=1;exitDx=0;exitDy=0;exitPerimeter=0;entryX=0.5;entryY=0;entryDx=0;entryDy=0;entryPerimeter=0;" parent="WIyWlLk6GJQsqaUBKTNV-1" source="bpjZJ4Prwg0HTMOpsLSU-167" target="bpjZJ4Prwg0HTMOpsLSU-102" edge="1">
          <mxGeometry relative="1" as="geometry" />
        </mxCell>
        <mxCell id="bpjZJ4Prwg0HTMOpsLSU-184" style="edgeStyle=orthogonalEdgeStyle;rounded=0;orthogonalLoop=1;jettySize=auto;html=1;entryX=0;entryY=0.5;entryDx=0;entryDy=0;" parent="WIyWlLk6GJQsqaUBKTNV-1" source="bpjZJ4Prwg0HTMOpsLSU-167" target="bpjZJ4Prwg0HTMOpsLSU-183" edge="1">
          <mxGeometry relative="1" as="geometry">
            <Array as="points">
              <mxPoint x="160" y="1690" />
              <mxPoint x="160" y="2400" />
            </Array>
          </mxGeometry>
        </mxCell>
        <mxCell id="bpjZJ4Prwg0HTMOpsLSU-167" value="ATM model" style="strokeWidth=2;html=1;shape=mxgraph.flowchart.stored_data;whiteSpace=wrap;" parent="WIyWlLk6GJQsqaUBKTNV-1" vertex="1">
          <mxGeometry x="590" y="1664" width="100" height="60" as="geometry" />
        </mxCell>
        <mxCell id="bpjZJ4Prwg0HTMOpsLSU-171" style="edgeStyle=orthogonalEdgeStyle;rounded=0;orthogonalLoop=1;jettySize=auto;html=1;exitX=0.5;exitY=1;exitDx=0;exitDy=0;entryX=0.5;entryY=0;entryDx=0;entryDy=0;entryPerimeter=0;" parent="WIyWlLk6GJQsqaUBKTNV-1" source="bpjZJ4Prwg0HTMOpsLSU-168" target="bpjZJ4Prwg0HTMOpsLSU-169" edge="1">
          <mxGeometry relative="1" as="geometry" />
        </mxCell>
        <mxCell id="bpjZJ4Prwg0HTMOpsLSU-168" value="LDA model" style="shape=parallelogram;html=1;strokeWidth=2;perimeter=parallelogramPerimeter;whiteSpace=wrap;rounded=1;arcSize=12;size=0.23;" parent="WIyWlLk6GJQsqaUBKTNV-1" vertex="1">
          <mxGeometry x="590" y="1534" width="100" height="60" as="geometry" />
        </mxCell>
        <mxCell id="bpjZJ4Prwg0HTMOpsLSU-172" style="edgeStyle=orthogonalEdgeStyle;rounded=0;orthogonalLoop=1;jettySize=auto;html=1;exitX=0.5;exitY=1;exitDx=0;exitDy=0;exitPerimeter=0;" parent="WIyWlLk6GJQsqaUBKTNV-1" source="bpjZJ4Prwg0HTMOpsLSU-169" target="bpjZJ4Prwg0HTMOpsLSU-167" edge="1">
          <mxGeometry relative="1" as="geometry" />
        </mxCell>
        <mxCell id="bpjZJ4Prwg0HTMOpsLSU-169" value="" style="verticalLabelPosition=bottom;verticalAlign=top;html=1;shape=mxgraph.flowchart.or;" parent="WIyWlLk6GJQsqaUBKTNV-1" vertex="1">
          <mxGeometry x="625" y="1614" width="30" height="30" as="geometry" />
        </mxCell>
        <mxCell id="bpjZJ4Prwg0HTMOpsLSU-182" style="edgeStyle=orthogonalEdgeStyle;rounded=0;orthogonalLoop=1;jettySize=auto;html=1;exitX=0.5;exitY=1;exitDx=0;exitDy=0;entryX=0.5;entryY=0;entryDx=0;entryDy=0;" parent="WIyWlLk6GJQsqaUBKTNV-1" source="bpjZJ4Prwg0HTMOpsLSU-175" target="bpjZJ4Prwg0HTMOpsLSU-181" edge="1">
          <mxGeometry relative="1" as="geometry" />
        </mxCell>
        <mxCell id="bpjZJ4Prwg0HTMOpsLSU-175" value="topic number =&lt;br&gt;iteration, restart document counter" style="shape=loopLimit;whiteSpace=wrap;html=1;" parent="WIyWlLk6GJQsqaUBKTNV-1" vertex="1">
          <mxGeometry x="310" y="2190" width="100" height="60" as="geometry" />
        </mxCell>
        <mxCell id="bpjZJ4Prwg0HTMOpsLSU-177" style="edgeStyle=orthogonalEdgeStyle;rounded=0;orthogonalLoop=1;jettySize=auto;html=1;entryX=0.5;entryY=0;entryDx=0;entryDy=0;" parent="WIyWlLk6GJQsqaUBKTNV-1" target="bpjZJ4Prwg0HTMOpsLSU-78" edge="1">
          <mxGeometry relative="1" as="geometry">
            <mxPoint x="360" y="860" as="sourcePoint" />
          </mxGeometry>
        </mxCell>
        <mxCell id="41M_tz0l8FGMAUU8uRZp-0" value="&lt;font style=&quot;font-size: 17px;&quot;&gt;No&lt;/font&gt;" style="edgeLabel;html=1;align=center;verticalAlign=middle;resizable=0;points=[];" parent="bpjZJ4Prwg0HTMOpsLSU-177" vertex="1" connectable="0">
          <mxGeometry x="-0.564" y="-1" relative="1" as="geometry">
            <mxPoint as="offset" />
          </mxGeometry>
        </mxCell>
        <mxCell id="bpjZJ4Prwg0HTMOpsLSU-180" value="Theta array" style="shape=parallelogram;html=1;strokeWidth=2;perimeter=parallelogramPerimeter;whiteSpace=wrap;rounded=1;arcSize=12;size=0.23;" parent="WIyWlLk6GJQsqaUBKTNV-1" vertex="1">
          <mxGeometry x="110" y="2260" width="100" height="60" as="geometry" />
        </mxCell>
        <mxCell id="bpjZJ4Prwg0HTMOpsLSU-185" style="edgeStyle=orthogonalEdgeStyle;rounded=0;orthogonalLoop=1;jettySize=auto;html=1;exitX=0.5;exitY=1;exitDx=0;exitDy=0;entryX=0.5;entryY=0;entryDx=0;entryDy=0;" parent="WIyWlLk6GJQsqaUBKTNV-1" source="bpjZJ4Prwg0HTMOpsLSU-181" target="bpjZJ4Prwg0HTMOpsLSU-183" edge="1">
          <mxGeometry relative="1" as="geometry" />
        </mxCell>
        <mxCell id="bpjZJ4Prwg0HTMOpsLSU-181" value="get next doc" style="rounded=0;whiteSpace=wrap;html=1;" parent="WIyWlLk6GJQsqaUBKTNV-1" vertex="1">
          <mxGeometry x="300" y="2270" width="120" height="60" as="geometry" />
        </mxCell>
        <mxCell id="bpjZJ4Prwg0HTMOpsLSU-209" style="edgeStyle=orthogonalEdgeStyle;rounded=0;orthogonalLoop=1;jettySize=auto;html=1;exitX=0.5;exitY=1;exitDx=0;exitDy=0;entryX=1;entryY=0.5;entryDx=0;entryDy=0;entryPerimeter=0;" parent="WIyWlLk6GJQsqaUBKTNV-1" source="bpjZJ4Prwg0HTMOpsLSU-183" target="bpjZJ4Prwg0HTMOpsLSU-203" edge="1">
          <mxGeometry relative="1" as="geometry" />
        </mxCell>
        <mxCell id="bpjZJ4Prwg0HTMOpsLSU-183" value="calculate topic coherence" style="rounded=0;whiteSpace=wrap;html=1;" parent="WIyWlLk6GJQsqaUBKTNV-1" vertex="1">
          <mxGeometry x="300" y="2370" width="120" height="60" as="geometry" />
        </mxCell>
        <mxCell id="bpjZJ4Prwg0HTMOpsLSU-216" style="edgeStyle=orthogonalEdgeStyle;rounded=0;orthogonalLoop=1;jettySize=auto;html=1;exitX=0.5;exitY=1;exitDx=0;exitDy=0;entryX=0.5;entryY=0;entryDx=0;entryDy=0;entryPerimeter=0;" parent="WIyWlLk6GJQsqaUBKTNV-1" source="bpjZJ4Prwg0HTMOpsLSU-186" target="bpjZJ4Prwg0HTMOpsLSU-215" edge="1">
          <mxGeometry relative="1" as="geometry" />
        </mxCell>
        <mxCell id="bpjZJ4Prwg0HTMOpsLSU-186" value="calculate importance metric" style="rounded=0;whiteSpace=wrap;html=1;" parent="WIyWlLk6GJQsqaUBKTNV-1" vertex="1">
          <mxGeometry x="175" y="2620" width="120" height="60" as="geometry" />
        </mxCell>
        <mxCell id="bpjZJ4Prwg0HTMOpsLSU-188" value="" style="edgeStyle=orthogonalEdgeStyle;rounded=0;orthogonalLoop=1;jettySize=auto;html=1;entryDx=0;entryDy=0;" parent="WIyWlLk6GJQsqaUBKTNV-1" edge="1">
          <mxGeometry relative="1" as="geometry">
            <mxPoint x="235" y="860" as="sourcePoint" />
            <mxPoint x="235" y="860" as="targetPoint" />
          </mxGeometry>
        </mxCell>
        <mxCell id="bpjZJ4Prwg0HTMOpsLSU-192" value="" style="edgeStyle=orthogonalEdgeStyle;rounded=0;orthogonalLoop=1;jettySize=auto;html=1;exitX=0;exitY=0.5;exitDx=0;exitDy=0;endArrow=none;endFill=0;" parent="WIyWlLk6GJQsqaUBKTNV-1" source="bpjZJ4Prwg0HTMOpsLSU-13" target="bpjZJ4Prwg0HTMOpsLSU-199" edge="1">
          <mxGeometry relative="1" as="geometry">
            <mxPoint x="300" y="610" as="sourcePoint" />
            <mxPoint x="235" y="610" as="targetPoint" />
          </mxGeometry>
        </mxCell>
        <mxCell id="bpjZJ4Prwg0HTMOpsLSU-195" value="topic &lt;br&gt;coherence &lt;br&gt;per doc" style="shape=parallelogram;html=1;strokeWidth=2;perimeter=parallelogramPerimeter;whiteSpace=wrap;rounded=1;arcSize=12;size=0.23;" parent="WIyWlLk6GJQsqaUBKTNV-1" vertex="1">
          <mxGeometry x="310" y="2470" width="100" height="60" as="geometry" />
        </mxCell>
        <mxCell id="bpjZJ4Prwg0HTMOpsLSU-211" style="edgeStyle=orthogonalEdgeStyle;rounded=0;orthogonalLoop=1;jettySize=auto;html=1;entryX=0;entryY=0.5;entryDx=0;entryDy=0;entryPerimeter=0;" parent="WIyWlLk6GJQsqaUBKTNV-1" source="bpjZJ4Prwg0HTMOpsLSU-199" target="bpjZJ4Prwg0HTMOpsLSU-203" edge="1">
          <mxGeometry relative="1" as="geometry">
            <Array as="points">
              <mxPoint x="90" y="610" />
              <mxPoint x="90" y="2580" />
              <mxPoint x="215" y="2580" />
            </Array>
          </mxGeometry>
        </mxCell>
        <mxCell id="bpjZJ4Prwg0HTMOpsLSU-199" value="" style="shape=waypoint;sketch=0;fillStyle=solid;size=6;pointerEvents=1;points=[];fillColor=none;resizable=0;rotatable=0;perimeter=centerPerimeter;snapToPoint=1;" parent="WIyWlLk6GJQsqaUBKTNV-1" vertex="1">
          <mxGeometry x="225" y="600" width="20" height="20" as="geometry" />
        </mxCell>
        <mxCell id="bpjZJ4Prwg0HTMOpsLSU-205" style="edgeStyle=orthogonalEdgeStyle;rounded=0;orthogonalLoop=1;jettySize=auto;html=1;exitX=0.5;exitY=1;exitDx=0;exitDy=0;exitPerimeter=0;" parent="WIyWlLk6GJQsqaUBKTNV-1" source="bpjZJ4Prwg0HTMOpsLSU-203" target="bpjZJ4Prwg0HTMOpsLSU-186" edge="1">
          <mxGeometry relative="1" as="geometry" />
        </mxCell>
        <mxCell id="bpjZJ4Prwg0HTMOpsLSU-203" value="" style="strokeWidth=2;html=1;shape=mxgraph.flowchart.merge_or_storage;whiteSpace=wrap;" parent="WIyWlLk6GJQsqaUBKTNV-1" vertex="1">
          <mxGeometry x="215" y="2570" width="40" height="30" as="geometry" />
        </mxCell>
        <mxCell id="bpjZJ4Prwg0HTMOpsLSU-197" value="normalized citations per &lt;br&gt;doc" style="shape=parallelogram;html=1;strokeWidth=2;perimeter=parallelogramPerimeter;whiteSpace=wrap;rounded=1;arcSize=12;size=0.23;" parent="WIyWlLk6GJQsqaUBKTNV-1" vertex="1">
          <mxGeometry x="40" y="2470" width="100" height="60" as="geometry" />
        </mxCell>
        <mxCell id="bpjZJ4Prwg0HTMOpsLSU-213" value="" style="edgeStyle=orthogonalEdgeStyle;rounded=0;orthogonalLoop=1;jettySize=auto;html=1;exitX=1;exitY=0.5;exitDx=0;exitDy=0;entryX=0;entryY=0.5;entryDx=0;entryDy=0;entryPerimeter=0;endArrow=none;endFill=0;" parent="WIyWlLk6GJQsqaUBKTNV-1" source="bpjZJ4Prwg0HTMOpsLSU-48" target="bpjZJ4Prwg0HTMOpsLSU-212" edge="1">
          <mxGeometry relative="1" as="geometry">
            <mxPoint x="410" y="1280" as="sourcePoint" />
            <mxPoint x="620" y="1280" as="targetPoint" />
          </mxGeometry>
        </mxCell>
        <mxCell id="bpjZJ4Prwg0HTMOpsLSU-228" style="edgeStyle=orthogonalEdgeStyle;rounded=0;orthogonalLoop=1;jettySize=auto;html=1;exitX=0.5;exitY=1;exitDx=0;exitDy=0;exitPerimeter=0;entryX=1;entryY=0.5;entryDx=0;entryDy=0;" parent="WIyWlLk6GJQsqaUBKTNV-1" source="bpjZJ4Prwg0HTMOpsLSU-212" target="bpjZJ4Prwg0HTMOpsLSU-181" edge="1">
          <mxGeometry relative="1" as="geometry">
            <Array as="points">
              <mxPoint x="490" y="1325" />
              <mxPoint x="490" y="2300" />
            </Array>
          </mxGeometry>
        </mxCell>
        <mxCell id="bpjZJ4Prwg0HTMOpsLSU-212" value="cleaned token sets" style="strokeWidth=2;html=1;shape=mxgraph.flowchart.stored_data;whiteSpace=wrap;" parent="WIyWlLk6GJQsqaUBKTNV-1" vertex="1">
          <mxGeometry x="460" y="1265" width="100" height="60" as="geometry" />
        </mxCell>
        <mxCell id="bpjZJ4Prwg0HTMOpsLSU-217" style="edgeStyle=orthogonalEdgeStyle;rounded=0;orthogonalLoop=1;jettySize=auto;html=1;exitX=1;exitY=0.5;exitDx=0;exitDy=0;exitPerimeter=0;" parent="WIyWlLk6GJQsqaUBKTNV-1" source="bpjZJ4Prwg0HTMOpsLSU-215" edge="1">
          <mxGeometry relative="1" as="geometry">
            <mxPoint x="360" y="2760" as="targetPoint" />
          </mxGeometry>
        </mxCell>
        <mxCell id="bpjZJ4Prwg0HTMOpsLSU-219" value="&lt;font style=&quot;font-size: 17px;&quot;&gt;Yes&lt;/font&gt;" style="edgeLabel;html=1;align=center;verticalAlign=middle;resizable=0;points=[];" parent="bpjZJ4Prwg0HTMOpsLSU-217" vertex="1" connectable="0">
          <mxGeometry x="-0.0464" relative="1" as="geometry">
            <mxPoint as="offset" />
          </mxGeometry>
        </mxCell>
        <mxCell id="bpjZJ4Prwg0HTMOpsLSU-232" style="edgeStyle=orthogonalEdgeStyle;rounded=0;orthogonalLoop=1;jettySize=auto;html=1;exitX=0.5;exitY=1;exitDx=0;exitDy=0;exitPerimeter=0;endArrow=none;endFill=0;" parent="WIyWlLk6GJQsqaUBKTNV-1" source="bpjZJ4Prwg0HTMOpsLSU-215" target="bpjZJ4Prwg0HTMOpsLSU-231" edge="1">
          <mxGeometry relative="1" as="geometry" />
        </mxCell>
        <mxCell id="bpjZJ4Prwg0HTMOpsLSU-237" value="&lt;font style=&quot;font-size: 17px;&quot;&gt;No&lt;/font&gt;" style="edgeLabel;html=1;align=center;verticalAlign=middle;resizable=0;points=[];" parent="bpjZJ4Prwg0HTMOpsLSU-232" vertex="1" connectable="0">
          <mxGeometry x="-0.4" y="3" relative="1" as="geometry">
            <mxPoint x="-3" y="12" as="offset" />
          </mxGeometry>
        </mxCell>
        <mxCell id="bpjZJ4Prwg0HTMOpsLSU-215" value="importance &lt;br&gt;metric is highest so far ?" style="strokeWidth=2;html=1;shape=mxgraph.flowchart.decision;whiteSpace=wrap;" parent="WIyWlLk6GJQsqaUBKTNV-1" vertex="1">
          <mxGeometry x="185" y="2710" width="100" height="100" as="geometry" />
        </mxCell>
        <mxCell id="bpjZJ4Prwg0HTMOpsLSU-233" style="edgeStyle=orthogonalEdgeStyle;rounded=0;orthogonalLoop=1;jettySize=auto;html=1;exitX=0.5;exitY=1;exitDx=0;exitDy=0;entryX=0.9;entryY=0.95;entryDx=0;entryDy=0;entryPerimeter=0;endArrow=none;endFill=0;" parent="WIyWlLk6GJQsqaUBKTNV-1" source="bpjZJ4Prwg0HTMOpsLSU-218" target="bpjZJ4Prwg0HTMOpsLSU-231" edge="1">
          <mxGeometry relative="1" as="geometry">
            <Array as="points">
              <mxPoint x="420" y="2870" />
            </Array>
          </mxGeometry>
        </mxCell>
        <mxCell id="bpjZJ4Prwg0HTMOpsLSU-283" style="edgeStyle=orthogonalEdgeStyle;rounded=0;orthogonalLoop=1;jettySize=auto;html=1;exitX=0.75;exitY=1;exitDx=0;exitDy=0;entryX=0;entryY=0;entryDx=105;entryDy=60;entryPerimeter=0;" parent="WIyWlLk6GJQsqaUBKTNV-1" source="bpjZJ4Prwg0HTMOpsLSU-218" target="bpjZJ4Prwg0HTMOpsLSU-248" edge="1">
          <mxGeometry relative="1" as="geometry" />
        </mxCell>
        <mxCell id="bpjZJ4Prwg0HTMOpsLSU-218" value="add to candidate papers" style="rounded=0;whiteSpace=wrap;html=1;" parent="WIyWlLk6GJQsqaUBKTNV-1" vertex="1">
          <mxGeometry x="360" y="2730" width="120" height="60" as="geometry" />
        </mxCell>
        <mxCell id="bpjZJ4Prwg0HTMOpsLSU-238" style="edgeStyle=orthogonalEdgeStyle;rounded=0;orthogonalLoop=1;jettySize=auto;html=1;exitX=1;exitY=0.5;exitDx=0;exitDy=0;exitPerimeter=0;entryX=1;entryY=0.75;entryDx=0;entryDy=0;" parent="WIyWlLk6GJQsqaUBKTNV-1" source="bpjZJ4Prwg0HTMOpsLSU-227" target="bpjZJ4Prwg0HTMOpsLSU-181" edge="1">
          <mxGeometry relative="1" as="geometry">
            <Array as="points">
              <mxPoint x="520" y="2950" />
              <mxPoint x="520" y="2315" />
            </Array>
          </mxGeometry>
        </mxCell>
        <mxCell id="bpjZJ4Prwg0HTMOpsLSU-239" value="&lt;font style=&quot;font-size: 17px;&quot;&gt;No&lt;/font&gt;" style="edgeLabel;html=1;align=center;verticalAlign=middle;resizable=0;points=[];" parent="bpjZJ4Prwg0HTMOpsLSU-238" vertex="1" connectable="0">
          <mxGeometry x="0.2" y="1" relative="1" as="geometry">
            <mxPoint as="offset" />
          </mxGeometry>
        </mxCell>
        <mxCell id="bpjZJ4Prwg0HTMOpsLSU-250" style="edgeStyle=orthogonalEdgeStyle;rounded=0;orthogonalLoop=1;jettySize=auto;html=1;exitX=0.5;exitY=1;exitDx=0;exitDy=0;exitPerimeter=0;entryX=0.5;entryY=0;entryDx=0;entryDy=0;entryPerimeter=0;" parent="WIyWlLk6GJQsqaUBKTNV-1" source="bpjZJ4Prwg0HTMOpsLSU-227" target="bpjZJ4Prwg0HTMOpsLSU-249" edge="1">
          <mxGeometry relative="1" as="geometry" />
        </mxCell>
        <mxCell id="bpjZJ4Prwg0HTMOpsLSU-251" value="&lt;font style=&quot;font-size: 17px;&quot;&gt;Yes&lt;/font&gt;" style="edgeLabel;html=1;align=center;verticalAlign=middle;resizable=0;points=[];" parent="bpjZJ4Prwg0HTMOpsLSU-250" vertex="1" connectable="0">
          <mxGeometry x="-0.3333" y="-3" relative="1" as="geometry">
            <mxPoint x="3" y="10" as="offset" />
          </mxGeometry>
        </mxCell>
        <mxCell id="bpjZJ4Prwg0HTMOpsLSU-227" value="last paper ?" style="strokeWidth=2;html=1;shape=mxgraph.flowchart.decision;whiteSpace=wrap;" parent="WIyWlLk6GJQsqaUBKTNV-1" vertex="1">
          <mxGeometry x="185" y="2900" width="100" height="100" as="geometry" />
        </mxCell>
        <mxCell id="bpjZJ4Prwg0HTMOpsLSU-236" style="edgeStyle=orthogonalEdgeStyle;rounded=0;orthogonalLoop=1;jettySize=auto;html=1;entryX=0.5;entryY=0;entryDx=0;entryDy=0;entryPerimeter=0;" parent="WIyWlLk6GJQsqaUBKTNV-1" source="bpjZJ4Prwg0HTMOpsLSU-231" target="bpjZJ4Prwg0HTMOpsLSU-227" edge="1">
          <mxGeometry relative="1" as="geometry" />
        </mxCell>
        <mxCell id="bpjZJ4Prwg0HTMOpsLSU-231" value="" style="shape=waypoint;sketch=0;fillStyle=solid;size=6;pointerEvents=1;points=[];fillColor=none;resizable=0;rotatable=0;perimeter=centerPerimeter;snapToPoint=1;" parent="WIyWlLk6GJQsqaUBKTNV-1" vertex="1">
          <mxGeometry x="225" y="2860" width="20" height="20" as="geometry" />
        </mxCell>
        <mxCell id="bpjZJ4Prwg0HTMOpsLSU-243" style="edgeStyle=orthogonalEdgeStyle;rounded=0;orthogonalLoop=1;jettySize=auto;html=1;exitX=1;exitY=0.5;exitDx=0;exitDy=0;exitPerimeter=0;entryX=1;entryY=0.5;entryDx=0;entryDy=0;" parent="WIyWlLk6GJQsqaUBKTNV-1" source="bpjZJ4Prwg0HTMOpsLSU-240" target="bpjZJ4Prwg0HTMOpsLSU-175" edge="1">
          <mxGeometry relative="1" as="geometry">
            <Array as="points">
              <mxPoint x="560" y="3270" />
              <mxPoint x="560" y="2220" />
            </Array>
          </mxGeometry>
        </mxCell>
        <mxCell id="bpjZJ4Prwg0HTMOpsLSU-244" value="&lt;font style=&quot;font-size: 17px;&quot;&gt;No&lt;/font&gt;" style="edgeLabel;html=1;align=center;verticalAlign=middle;resizable=0;points=[];" parent="bpjZJ4Prwg0HTMOpsLSU-243" vertex="1" connectable="0">
          <mxGeometry x="0.0281" y="-2" relative="1" as="geometry">
            <mxPoint as="offset" />
          </mxGeometry>
        </mxCell>
        <mxCell id="bpjZJ4Prwg0HTMOpsLSU-246" style="edgeStyle=orthogonalEdgeStyle;rounded=0;orthogonalLoop=1;jettySize=auto;html=1;exitX=0.5;exitY=1;exitDx=0;exitDy=0;exitPerimeter=0;entryX=0;entryY=0;entryDx=69.375;entryDy=0;entryPerimeter=0;" parent="WIyWlLk6GJQsqaUBKTNV-1" source="bpjZJ4Prwg0HTMOpsLSU-240" target="bpjZJ4Prwg0HTMOpsLSU-248" edge="1">
          <mxGeometry relative="1" as="geometry">
            <mxPoint x="235" y="3380" as="targetPoint" />
          </mxGeometry>
        </mxCell>
        <mxCell id="bpjZJ4Prwg0HTMOpsLSU-247" value="&lt;font style=&quot;font-size: 17px;&quot;&gt;Yes&lt;/font&gt;" style="edgeLabel;html=1;align=center;verticalAlign=middle;resizable=0;points=[];" parent="bpjZJ4Prwg0HTMOpsLSU-246" vertex="1" connectable="0">
          <mxGeometry x="-0.1" y="2" relative="1" as="geometry">
            <mxPoint as="offset" />
          </mxGeometry>
        </mxCell>
        <mxCell id="bpjZJ4Prwg0HTMOpsLSU-240" value="last topic ?" style="strokeWidth=2;html=1;shape=mxgraph.flowchart.decision;whiteSpace=wrap;" parent="WIyWlLk6GJQsqaUBKTNV-1" vertex="1">
          <mxGeometry x="185" y="3220" width="100" height="100" as="geometry" />
        </mxCell>
        <mxCell id="bpjZJ4Prwg0HTMOpsLSU-257" style="edgeStyle=orthogonalEdgeStyle;rounded=0;orthogonalLoop=1;jettySize=auto;html=1;exitX=0;exitY=0;exitDx=69.375;exitDy=60;exitPerimeter=0;entryX=0.5;entryY=0;entryDx=0;entryDy=0;" parent="WIyWlLk6GJQsqaUBKTNV-1" source="bpjZJ4Prwg0HTMOpsLSU-248" target="bpjZJ4Prwg0HTMOpsLSU-256" edge="1">
          <mxGeometry relative="1" as="geometry" />
        </mxCell>
        <mxCell id="bpjZJ4Prwg0HTMOpsLSU-248" value="candidate papers" style="shape=display;whiteSpace=wrap;html=1;" parent="WIyWlLk6GJQsqaUBKTNV-1" vertex="1">
          <mxGeometry x="170" y="3480" width="135" height="60" as="geometry" />
        </mxCell>
        <mxCell id="bpjZJ4Prwg0HTMOpsLSU-252" style="edgeStyle=orthogonalEdgeStyle;rounded=0;orthogonalLoop=1;jettySize=auto;html=1;exitX=0.5;exitY=1;exitDx=0;exitDy=0;exitPerimeter=0;entryX=0.5;entryY=0;entryDx=0;entryDy=0;entryPerimeter=0;" parent="WIyWlLk6GJQsqaUBKTNV-1" source="bpjZJ4Prwg0HTMOpsLSU-249" target="bpjZJ4Prwg0HTMOpsLSU-240" edge="1">
          <mxGeometry relative="1" as="geometry" />
        </mxCell>
        <mxCell id="bpjZJ4Prwg0HTMOpsLSU-254" style="edgeStyle=orthogonalEdgeStyle;rounded=0;orthogonalLoop=1;jettySize=auto;html=1;exitX=1;exitY=0.5;exitDx=0;exitDy=0;exitPerimeter=0;entryX=1;entryY=0.5;entryDx=0;entryDy=0;entryPerimeter=0;" parent="WIyWlLk6GJQsqaUBKTNV-1" source="bpjZJ4Prwg0HTMOpsLSU-249" target="bpjZJ4Prwg0HTMOpsLSU-248" edge="1">
          <mxGeometry relative="1" as="geometry">
            <Array as="points">
              <mxPoint x="340" y="3110" />
              <mxPoint x="340" y="3510" />
            </Array>
          </mxGeometry>
        </mxCell>
        <mxCell id="bpjZJ4Prwg0HTMOpsLSU-249" value="redrawing &lt;br&gt;single topic ?" style="strokeWidth=2;html=1;shape=mxgraph.flowchart.decision;whiteSpace=wrap;" parent="WIyWlLk6GJQsqaUBKTNV-1" vertex="1">
          <mxGeometry x="185" y="3060" width="100" height="100" as="geometry" />
        </mxCell>
        <mxCell id="bpjZJ4Prwg0HTMOpsLSU-253" value="&lt;font style=&quot;font-size: 17px;&quot;&gt;No&lt;/font&gt;" style="edgeLabel;html=1;align=center;verticalAlign=middle;resizable=0;points=[];" parent="WIyWlLk6GJQsqaUBKTNV-1" vertex="1" connectable="0">
          <mxGeometry x="255" y="3060" as="geometry">
            <mxPoint x="-21" y="128" as="offset" />
          </mxGeometry>
        </mxCell>
        <mxCell id="bpjZJ4Prwg0HTMOpsLSU-255" value="&lt;font style=&quot;font-size: 17px;&quot;&gt;Yes&lt;/font&gt;" style="edgeLabel;html=1;align=center;verticalAlign=middle;resizable=0;points=[];" parent="WIyWlLk6GJQsqaUBKTNV-1" vertex="1" connectable="0">
          <mxGeometry x="340" y="3200" as="geometry" />
        </mxCell>
        <mxCell id="CQDhmKuSVkNlONuokkHn-4" style="edgeStyle=orthogonalEdgeStyle;rounded=0;orthogonalLoop=1;jettySize=auto;html=1;exitX=0.5;exitY=1;exitDx=0;exitDy=0;entryX=0.5;entryY=0;entryDx=0;entryDy=0;entryPerimeter=0;" parent="WIyWlLk6GJQsqaUBKTNV-1" source="bpjZJ4Prwg0HTMOpsLSU-256" target="CQDhmKuSVkNlONuokkHn-0" edge="1">
          <mxGeometry relative="1" as="geometry" />
        </mxCell>
        <mxCell id="bpjZJ4Prwg0HTMOpsLSU-256" value="evaluate all &lt;br&gt;candidate papers" style="verticalLabelPosition=middle;verticalAlign=middle;html=1;shape=trapezoid;perimeter=trapezoidPerimeter;whiteSpace=wrap;size=0.23;arcSize=10;flipV=1;labelPosition=center;align=center;" parent="WIyWlLk6GJQsqaUBKTNV-1" vertex="1">
          <mxGeometry x="175" y="3580" width="130" height="90" as="geometry" />
        </mxCell>
        <mxCell id="bpjZJ4Prwg0HTMOpsLSU-269" style="edgeStyle=orthogonalEdgeStyle;rounded=0;orthogonalLoop=1;jettySize=auto;html=1;exitX=1;exitY=0.5;exitDx=0;exitDy=0;entryX=1;entryY=0.25;entryDx=0;entryDy=0;" parent="WIyWlLk6GJQsqaUBKTNV-1" source="bpjZJ4Prwg0HTMOpsLSU-265" target="bpjZJ4Prwg0HTMOpsLSU-181" edge="1">
          <mxGeometry relative="1" as="geometry" />
        </mxCell>
        <mxCell id="bpjZJ4Prwg0HTMOpsLSU-279" style="edgeStyle=orthogonalEdgeStyle;rounded=0;orthogonalLoop=1;jettySize=auto;html=1;exitX=0.5;exitY=1;exitDx=0;exitDy=0;" parent="WIyWlLk6GJQsqaUBKTNV-1" source="bpjZJ4Prwg0HTMOpsLSU-273" target="bpjZJ4Prwg0HTMOpsLSU-274" edge="1">
          <mxGeometry relative="1" as="geometry" />
        </mxCell>
        <mxCell id="bpjZJ4Prwg0HTMOpsLSU-273" value="determine model &lt;br&gt;quality" style="verticalLabelPosition=middle;verticalAlign=middle;html=1;shape=trapezoid;perimeter=trapezoidPerimeter;whiteSpace=wrap;size=0.23;arcSize=10;flipV=1;labelPosition=center;align=center;" parent="WIyWlLk6GJQsqaUBKTNV-1" vertex="1">
          <mxGeometry x="575" y="1914" width="130" height="90" as="geometry" />
        </mxCell>
        <mxCell id="bpjZJ4Prwg0HTMOpsLSU-275" style="edgeStyle=orthogonalEdgeStyle;rounded=0;orthogonalLoop=1;jettySize=auto;html=1;exitX=0;exitY=0.5;exitDx=0;exitDy=0;exitPerimeter=0;entryX=0.5;entryY=0;entryDx=0;entryDy=0;" parent="WIyWlLk6GJQsqaUBKTNV-1" source="bpjZJ4Prwg0HTMOpsLSU-274" target="bpjZJ4Prwg0HTMOpsLSU-175" edge="1">
          <mxGeometry relative="1" as="geometry" />
        </mxCell>
        <mxCell id="bpjZJ4Prwg0HTMOpsLSU-280" style="edgeStyle=orthogonalEdgeStyle;rounded=0;orthogonalLoop=1;jettySize=auto;html=1;exitX=1;exitY=0.5;exitDx=0;exitDy=0;exitPerimeter=0;entryX=0.992;entryY=0.822;entryDx=0;entryDy=0;entryPerimeter=0;" parent="WIyWlLk6GJQsqaUBKTNV-1" source="bpjZJ4Prwg0HTMOpsLSU-274" target="bpjZJ4Prwg0HTMOpsLSU-42" edge="1">
          <mxGeometry relative="1" as="geometry">
            <Array as="points">
              <mxPoint x="1010" y="2084" />
              <mxPoint x="1010" y="896" />
            </Array>
          </mxGeometry>
        </mxCell>
        <mxCell id="bpjZJ4Prwg0HTMOpsLSU-274" value="model quality is accepted" style="strokeWidth=2;html=1;shape=mxgraph.flowchart.decision;whiteSpace=wrap;" parent="WIyWlLk6GJQsqaUBKTNV-1" vertex="1">
          <mxGeometry x="590" y="2034" width="100" height="100" as="geometry" />
        </mxCell>
        <mxCell id="bpjZJ4Prwg0HTMOpsLSU-276" value="&lt;font style=&quot;font-size: 17px;&quot;&gt;Yes&lt;/font&gt;" style="edgeLabel;html=1;align=center;verticalAlign=middle;resizable=0;points=[];" parent="WIyWlLk6GJQsqaUBKTNV-1" vertex="1" connectable="0">
          <mxGeometry x="460" y="2084" as="geometry" />
        </mxCell>
        <mxCell id="bpjZJ4Prwg0HTMOpsLSU-278" value="&lt;font style=&quot;font-size: 17px;&quot;&gt;Yes&lt;/font&gt;" style="edgeLabel;html=1;align=center;verticalAlign=middle;resizable=0;points=[];" parent="WIyWlLk6GJQsqaUBKTNV-1" vertex="1" connectable="0">
          <mxGeometry x="460" y="2084" as="geometry">
            <mxPoint x="182" y="-198" as="offset" />
          </mxGeometry>
        </mxCell>
        <mxCell id="bpjZJ4Prwg0HTMOpsLSU-281" value="&lt;font style=&quot;font-size: 17px;&quot;&gt;No&lt;/font&gt;" style="edgeLabel;html=1;align=center;verticalAlign=middle;resizable=0;points=[];" parent="WIyWlLk6GJQsqaUBKTNV-1" vertex="1" connectable="0">
          <mxGeometry x="1010" y="1280" as="geometry" />
        </mxCell>
        <mxCell id="bpjZJ4Prwg0HTMOpsLSU-284" value="candidate papers" style="strokeWidth=2;html=1;shape=mxgraph.flowchart.multi-document;whiteSpace=wrap;" parent="WIyWlLk6GJQsqaUBKTNV-1" vertex="1">
          <mxGeometry x="404" y="3060" width="88" height="60" as="geometry" />
        </mxCell>
        <mxCell id="bpjZJ4Prwg0HTMOpsLSU-287" value="generating the subdataset" style="swimlane;whiteSpace=wrap;html=1;fillColor=#b0e3e6;strokeColor=#0e8088;strokeWidth=3;" parent="WIyWlLk6GJQsqaUBKTNV-1" vertex="1">
          <mxGeometry width="810" height="830" as="geometry">
            <mxRectangle width="190" height="30" as="alternateBounds" />
          </mxGeometry>
        </mxCell>
        <mxCell id="bpjZJ4Prwg0HTMOpsLSU-14" value="START" style="strokeWidth=2;html=1;shape=mxgraph.flowchart.start_1;whiteSpace=wrap;" parent="bpjZJ4Prwg0HTMOpsLSU-287" vertex="1">
          <mxGeometry x="310" y="30" width="100" height="60" as="geometry" />
        </mxCell>
        <mxCell id="bpjZJ4Prwg0HTMOpsLSU-16" value="determine research focus, scope, and&lt;br&gt;granularity" style="verticalLabelPosition=middle;verticalAlign=middle;html=1;shape=trapezoid;perimeter=trapezoidPerimeter;whiteSpace=wrap;size=0.23;arcSize=10;flipV=1;labelPosition=center;align=center;" parent="bpjZJ4Prwg0HTMOpsLSU-287" vertex="1">
          <mxGeometry x="295" y="110" width="130" height="90" as="geometry" />
        </mxCell>
        <mxCell id="bpjZJ4Prwg0HTMOpsLSU-17" style="edgeStyle=orthogonalEdgeStyle;rounded=0;orthogonalLoop=1;jettySize=auto;html=1;exitX=0.5;exitY=1;exitDx=0;exitDy=0;exitPerimeter=0;entryX=0.5;entryY=0;entryDx=0;entryDy=0;" parent="bpjZJ4Prwg0HTMOpsLSU-287" source="bpjZJ4Prwg0HTMOpsLSU-14" target="bpjZJ4Prwg0HTMOpsLSU-16" edge="1">
          <mxGeometry relative="1" as="geometry" />
        </mxCell>
        <mxCell id="bpjZJ4Prwg0HTMOpsLSU-288" value="preproccessing" style="swimlane;whiteSpace=wrap;html=1;fillColor=#fad7ac;strokeColor=#b46504;strokeWidth=3;" parent="WIyWlLk6GJQsqaUBKTNV-1" vertex="1">
          <mxGeometry x="275" y="970" width="165" height="390" as="geometry">
            <mxRectangle x="275" y="970" width="130" height="30" as="alternateBounds" />
          </mxGeometry>
        </mxCell>
        <mxCell id="bpjZJ4Prwg0HTMOpsLSU-78" value="combine title and abstract" style="rounded=0;whiteSpace=wrap;html=1;" parent="bpjZJ4Prwg0HTMOpsLSU-288" vertex="1">
          <mxGeometry x="25" y="50" width="120" height="60" as="geometry" />
        </mxCell>
        <mxCell id="bpjZJ4Prwg0HTMOpsLSU-79" value="tokenize" style="rounded=0;whiteSpace=wrap;html=1;" parent="bpjZJ4Prwg0HTMOpsLSU-288" vertex="1">
          <mxGeometry x="22.5" y="130" width="120" height="60" as="geometry" />
        </mxCell>
        <mxCell id="bpjZJ4Prwg0HTMOpsLSU-81" style="edgeStyle=orthogonalEdgeStyle;rounded=0;orthogonalLoop=1;jettySize=auto;html=1;exitX=0.5;exitY=1;exitDx=0;exitDy=0;entryX=0.5;entryY=0;entryDx=0;entryDy=0;" parent="bpjZJ4Prwg0HTMOpsLSU-288" source="bpjZJ4Prwg0HTMOpsLSU-78" target="bpjZJ4Prwg0HTMOpsLSU-79" edge="1">
          <mxGeometry relative="1" as="geometry" />
        </mxCell>
        <mxCell id="bpjZJ4Prwg0HTMOpsLSU-48" value="NLP preprocessin" style="verticalLabelPosition=bottom;verticalAlign=top;html=1;shape=process;whiteSpace=wrap;rounded=1;size=0.14;arcSize=6;fillColor=#ffe6cc;strokeColor=#d79b00;" parent="bpjZJ4Prwg0HTMOpsLSU-288" vertex="1">
          <mxGeometry x="35" y="295" width="100" height="60" as="geometry" />
        </mxCell>
        <mxCell id="bpjZJ4Prwg0HTMOpsLSU-82" style="edgeStyle=orthogonalEdgeStyle;rounded=0;orthogonalLoop=1;jettySize=auto;html=1;exitX=0.5;exitY=1;exitDx=0;exitDy=0;" parent="bpjZJ4Prwg0HTMOpsLSU-288" source="bpjZJ4Prwg0HTMOpsLSU-79" target="bpjZJ4Prwg0HTMOpsLSU-48" edge="1">
          <mxGeometry relative="1" as="geometry" />
        </mxCell>
        <mxCell id="bpjZJ4Prwg0HTMOpsLSU-46" value="token set per &lt;br&gt;doc" style="shape=parallelogram;html=1;strokeWidth=2;perimeter=parallelogramPerimeter;whiteSpace=wrap;rounded=1;arcSize=12;size=0.23;" parent="bpjZJ4Prwg0HTMOpsLSU-288" vertex="1">
          <mxGeometry x="32.5" y="210" width="100" height="60" as="geometry" />
        </mxCell>
        <mxCell id="bpjZJ4Prwg0HTMOpsLSU-315" value="generating the NLP model" style="swimlane;whiteSpace=wrap;html=1;fillColor=#d0cee2;strokeColor=#56517e;strokeWidth=3;" parent="WIyWlLk6GJQsqaUBKTNV-1" vertex="1">
          <mxGeometry x="530" y="1340" width="310" height="800" as="geometry" />
        </mxCell>
        <mxCell id="bpjZJ4Prwg0HTMOpsLSU-316" value="candidate paper selection" style="swimlane;whiteSpace=wrap;html=1;fillColor=#fad9d5;strokeColor=#ae4132;strokeWidth=3;" parent="WIyWlLk6GJQsqaUBKTNV-1" vertex="1">
          <mxGeometry x="10" y="2150" width="670" height="1210" as="geometry" />
        </mxCell>
        <mxCell id="bpjZJ4Prwg0HTMOpsLSU-317" value="paper selection" style="swimlane;whiteSpace=wrap;html=1;fillColor=#bac8d3;strokeColor=#23445d;strokeWidth=3;" parent="WIyWlLk6GJQsqaUBKTNV-1" vertex="1">
          <mxGeometry x="50" y="3430" width="590" height="740" as="geometry" />
        </mxCell>
        <mxCell id="bpjZJ4Prwg0HTMOpsLSU-262" value="accept all canidate &lt;br&gt;papers ?" style="strokeWidth=2;html=1;shape=mxgraph.flowchart.decision;whiteSpace=wrap;" parent="bpjZJ4Prwg0HTMOpsLSU-317" vertex="1">
          <mxGeometry x="140" y="430" width="100" height="100" as="geometry" />
        </mxCell>
        <mxCell id="bpjZJ4Prwg0HTMOpsLSU-265" value="set topic number to rejected candidate paper, restart document counter" style="rounded=0;whiteSpace=wrap;html=1;" parent="bpjZJ4Prwg0HTMOpsLSU-317" vertex="1">
          <mxGeometry x="405" y="450" width="120" height="60" as="geometry" />
        </mxCell>
        <mxCell id="bpjZJ4Prwg0HTMOpsLSU-266" style="edgeStyle=orthogonalEdgeStyle;rounded=0;orthogonalLoop=1;jettySize=auto;html=1;exitX=1;exitY=0.5;exitDx=0;exitDy=0;exitPerimeter=0;entryX=0;entryY=0.5;entryDx=0;entryDy=0;" parent="bpjZJ4Prwg0HTMOpsLSU-317" source="bpjZJ4Prwg0HTMOpsLSU-262" target="bpjZJ4Prwg0HTMOpsLSU-265" edge="1">
          <mxGeometry relative="1" as="geometry" />
        </mxCell>
        <mxCell id="bpjZJ4Prwg0HTMOpsLSU-270" value="END" style="strokeWidth=2;html=1;shape=mxgraph.flowchart.terminator;whiteSpace=wrap;" parent="bpjZJ4Prwg0HTMOpsLSU-317" vertex="1">
          <mxGeometry x="140" y="680" width="100" height="60" as="geometry" />
        </mxCell>
        <mxCell id="bpjZJ4Prwg0HTMOpsLSU-271" style="edgeStyle=orthogonalEdgeStyle;rounded=0;orthogonalLoop=1;jettySize=auto;html=1;exitX=0.5;exitY=1;exitDx=0;exitDy=0;exitPerimeter=0;entryX=0.5;entryY=0;entryDx=0;entryDy=0;entryPerimeter=0;" parent="bpjZJ4Prwg0HTMOpsLSU-317" source="bpjZJ4Prwg0HTMOpsLSU-262" target="bpjZJ4Prwg0HTMOpsLSU-270" edge="1">
          <mxGeometry relative="1" as="geometry" />
        </mxCell>
        <mxCell id="bpjZJ4Prwg0HTMOpsLSU-286" value="selected&lt;br&gt;papers" style="strokeWidth=2;html=1;shape=mxgraph.flowchart.multi-document;whiteSpace=wrap;" parent="bpjZJ4Prwg0HTMOpsLSU-317" vertex="1">
          <mxGeometry x="146" y="560" width="88" height="60" as="geometry" />
        </mxCell>
        <mxCell id="bpjZJ4Prwg0HTMOpsLSU-267" value="&lt;font style=&quot;font-size: 17px;&quot;&gt;No&lt;/font&gt;" style="edgeLabel;html=1;align=center;verticalAlign=middle;resizable=0;points=[];" parent="bpjZJ4Prwg0HTMOpsLSU-317" vertex="1" connectable="0">
          <mxGeometry x="345" y="350" as="geometry">
            <mxPoint x="-21" y="128" as="offset" />
          </mxGeometry>
        </mxCell>
        <mxCell id="CQDhmKuSVkNlONuokkHn-5" style="edgeStyle=orthogonalEdgeStyle;rounded=0;orthogonalLoop=1;jettySize=auto;html=1;exitX=0.5;exitY=1;exitDx=0;exitDy=0;exitPerimeter=0;entryX=0.5;entryY=0;entryDx=0;entryDy=0;entryPerimeter=0;" parent="bpjZJ4Prwg0HTMOpsLSU-317" source="CQDhmKuSVkNlONuokkHn-0" target="bpjZJ4Prwg0HTMOpsLSU-262" edge="1">
          <mxGeometry relative="1" as="geometry" />
        </mxCell>
        <mxCell id="CQDhmKuSVkNlONuokkHn-0" value="too many false&lt;br&gt;positives ?" style="strokeWidth=2;html=1;shape=mxgraph.flowchart.decision;whiteSpace=wrap;" parent="bpjZJ4Prwg0HTMOpsLSU-317" vertex="1">
          <mxGeometry x="140" y="280" width="100" height="100" as="geometry" />
        </mxCell>
        <mxCell id="CQDhmKuSVkNlONuokkHn-6" value="&lt;font style=&quot;font-size: 17px;&quot;&gt;No&lt;/font&gt;" style="edgeLabel;html=1;align=center;verticalAlign=middle;resizable=0;points=[];" parent="bpjZJ4Prwg0HTMOpsLSU-317" vertex="1" connectable="0">
          <mxGeometry x="210" y="270" as="geometry">
            <mxPoint x="-21" y="128" as="offset" />
          </mxGeometry>
        </mxCell>
        <mxCell id="CQDhmKuSVkNlONuokkHn-8" value="&lt;font style=&quot;font-size: 17px;&quot;&gt;Yes&lt;/font&gt;" style="edgeLabel;html=1;align=center;verticalAlign=middle;resizable=0;points=[];" parent="bpjZJ4Prwg0HTMOpsLSU-317" vertex="1" connectable="0">
          <mxGeometry x="190" y="650" as="geometry" />
        </mxCell>
        <mxCell id="CQDhmKuSVkNlONuokkHn-7" style="edgeStyle=orthogonalEdgeStyle;rounded=0;orthogonalLoop=1;jettySize=auto;html=1;exitX=0;exitY=0.5;exitDx=0;exitDy=0;exitPerimeter=0;entryX=0;entryY=0.25;entryDx=0;entryDy=0;" parent="WIyWlLk6GJQsqaUBKTNV-1" source="CQDhmKuSVkNlONuokkHn-0" target="bpjZJ4Prwg0HTMOpsLSU-19" edge="1">
          <mxGeometry relative="1" as="geometry">
            <Array as="points">
              <mxPoint x="30" y="3760" />
              <mxPoint x="30" y="255" />
            </Array>
          </mxGeometry>
        </mxCell>
        <mxCell id="CQDhmKuSVkNlONuokkHn-9" value="&lt;font style=&quot;font-size: 17px;&quot;&gt;Yes&lt;/font&gt;" style="edgeLabel;html=1;align=center;verticalAlign=middle;resizable=0;points=[];" parent="WIyWlLk6GJQsqaUBKTNV-1" vertex="1" connectable="0">
          <mxGeometry x="120" y="3760" as="geometry" />
        </mxCell>
      </root>
    </mxGraphModel>
  </diagram>
  <diagram id="nP4Ub7gQerKyf4HmhnlW" name="Seite-2">
    <mxGraphModel dx="2033" dy="2333" grid="1" gridSize="10" guides="1" tooltips="1" connect="1" arrows="1" fold="1" page="1" pageScale="1" pageWidth="827" pageHeight="1169" math="0" shadow="1">
      <root>
        <mxCell id="0" />
        <mxCell id="1" parent="0" />
        <mxCell id="lZyvXC731JXGp9D0N6sY-21" value="generating the subdataset" style="swimlane;whiteSpace=wrap;html=1;fillColor=#b0e3e6;strokeColor=#0e8088;strokeWidth=3;" parent="1" vertex="1">
          <mxGeometry x="10" y="-10" width="770" height="930" as="geometry">
            <mxRectangle width="190" height="30" as="alternateBounds" />
          </mxGeometry>
        </mxCell>
        <mxCell id="lZyvXC731JXGp9D0N6sY-22" value="START" style="strokeWidth=2;html=1;shape=mxgraph.flowchart.start_1;whiteSpace=wrap;" parent="lZyvXC731JXGp9D0N6sY-21" vertex="1">
          <mxGeometry x="310" y="30" width="100" height="60" as="geometry" />
        </mxCell>
        <mxCell id="lZyvXC731JXGp9D0N6sY-23" value="determine research focus, scope, and&lt;br&gt;granularity" style="verticalLabelPosition=middle;verticalAlign=middle;html=1;shape=trapezoid;perimeter=trapezoidPerimeter;whiteSpace=wrap;size=0.23;arcSize=10;flipV=1;labelPosition=center;align=center;" parent="lZyvXC731JXGp9D0N6sY-21" vertex="1">
          <mxGeometry x="295" y="110" width="130" height="90" as="geometry" />
        </mxCell>
        <mxCell id="lZyvXC731JXGp9D0N6sY-24" style="edgeStyle=orthogonalEdgeStyle;rounded=0;orthogonalLoop=1;jettySize=auto;html=1;exitX=0.5;exitY=1;exitDx=0;exitDy=0;exitPerimeter=0;entryX=0.5;entryY=0;entryDx=0;entryDy=0;" parent="lZyvXC731JXGp9D0N6sY-21" source="lZyvXC731JXGp9D0N6sY-22" target="lZyvXC731JXGp9D0N6sY-23" edge="1">
          <mxGeometry relative="1" as="geometry" />
        </mxCell>
        <mxCell id="lZyvXC731JXGp9D0N6sY-1" style="edgeStyle=orthogonalEdgeStyle;rounded=0;orthogonalLoop=1;jettySize=auto;html=1;exitX=0.5;exitY=1;exitDx=0;exitDy=0;" parent="lZyvXC731JXGp9D0N6sY-21" source="lZyvXC731JXGp9D0N6sY-3" edge="1">
          <mxGeometry relative="1" as="geometry">
            <mxPoint x="360" y="700" as="targetPoint" />
          </mxGeometry>
        </mxCell>
        <mxCell id="lZyvXC731JXGp9D0N6sY-3" value="extract subdataset characteristics" style="rounded=0;whiteSpace=wrap;html=1;" parent="lZyvXC731JXGp9D0N6sY-21" vertex="1">
          <mxGeometry x="300" y="590" width="120" height="60" as="geometry" />
        </mxCell>
        <mxCell id="lZyvXC731JXGp9D0N6sY-5" style="edgeStyle=orthogonalEdgeStyle;rounded=0;orthogonalLoop=1;jettySize=auto;html=1;exitX=0.5;exitY=1;exitDx=0;exitDy=0;entryX=0.5;entryY=0;entryDx=0;entryDy=0;" parent="lZyvXC731JXGp9D0N6sY-21" source="lZyvXC731JXGp9D0N6sY-7" edge="1">
          <mxGeometry relative="1" as="geometry">
            <mxPoint x="360" y="390" as="targetPoint" />
          </mxGeometry>
        </mxCell>
        <mxCell id="lZyvXC731JXGp9D0N6sY-6" value="query" style="edgeLabel;html=1;align=center;verticalAlign=middle;resizable=0;points=[];" parent="lZyvXC731JXGp9D0N6sY-5" vertex="1" connectable="0">
          <mxGeometry x="-0.2067" y="1" relative="1" as="geometry">
            <mxPoint as="offset" />
          </mxGeometry>
        </mxCell>
        <mxCell id="lZyvXC731JXGp9D0N6sY-7" value="construct set of SQL query keywords" style="verticalLabelPosition=middle;verticalAlign=middle;html=1;shape=trapezoid;perimeter=trapezoidPerimeter;whiteSpace=wrap;size=0.23;arcSize=10;flipV=1;labelPosition=center;align=center;" parent="lZyvXC731JXGp9D0N6sY-21" vertex="1">
          <mxGeometry x="295" y="240" width="130" height="90" as="geometry" />
        </mxCell>
        <mxCell id="lZyvXC731JXGp9D0N6sY-8" style="edgeStyle=orthogonalEdgeStyle;rounded=0;orthogonalLoop=1;jettySize=auto;html=1;exitX=0.5;exitY=1;exitDx=0;exitDy=0;exitPerimeter=0;entryX=0.5;entryY=0;entryDx=0;entryDy=0;" parent="lZyvXC731JXGp9D0N6sY-21" source="lZyvXC731JXGp9D0N6sY-9" target="lZyvXC731JXGp9D0N6sY-3" edge="1">
          <mxGeometry relative="1" as="geometry" />
        </mxCell>
        <mxCell id="lZyvXC731JXGp9D0N6sY-9" value="AIP" style="strokeWidth=2;html=1;shape=mxgraph.flowchart.database;whiteSpace=wrap;" parent="lZyvXC731JXGp9D0N6sY-21" vertex="1">
          <mxGeometry x="330" y="390" width="60" height="60" as="geometry" />
        </mxCell>
        <mxCell id="lZyvXC731JXGp9D0N6sY-10" value="paper subdataset" style="strokeWidth=2;html=1;shape=mxgraph.flowchart.multi-document;whiteSpace=wrap;" parent="lZyvXC731JXGp9D0N6sY-21" vertex="1">
          <mxGeometry x="316" y="480" width="88" height="60" as="geometry" />
        </mxCell>
        <mxCell id="lZyvXC731JXGp9D0N6sY-11" style="edgeStyle=orthogonalEdgeStyle;rounded=0;orthogonalLoop=1;jettySize=auto;html=1;exitX=1;exitY=0.5;exitDx=0;exitDy=0;exitPerimeter=0;entryX=1;entryY=0.5;entryDx=0;entryDy=0;" parent="lZyvXC731JXGp9D0N6sY-21" source="lZyvXC731JXGp9D0N6sY-15" target="lZyvXC731JXGp9D0N6sY-7" edge="1">
          <mxGeometry relative="1" as="geometry">
            <Array as="points">
              <mxPoint x="520" y="750" />
              <mxPoint x="520" y="285" />
            </Array>
          </mxGeometry>
        </mxCell>
        <mxCell id="lZyvXC731JXGp9D0N6sY-12" value="yes" style="edgeLabel;html=1;align=center;verticalAlign=middle;resizable=0;points=[];fontSize=17;" parent="lZyvXC731JXGp9D0N6sY-11" vertex="1" connectable="0">
          <mxGeometry x="0.1037" y="-2" relative="1" as="geometry">
            <mxPoint as="offset" />
          </mxGeometry>
        </mxCell>
        <mxCell id="lZyvXC731JXGp9D0N6sY-13" style="edgeStyle=orthogonalEdgeStyle;rounded=0;orthogonalLoop=1;jettySize=auto;html=1;exitDx=0;exitDy=0;exitPerimeter=0;" parent="lZyvXC731JXGp9D0N6sY-21" edge="1">
          <mxGeometry relative="1" as="geometry">
            <mxPoint x="360" y="860" as="targetPoint" />
            <mxPoint x="360" y="860" as="sourcePoint" />
          </mxGeometry>
        </mxCell>
        <mxCell id="lZyvXC731JXGp9D0N6sY-27" style="edgeStyle=orthogonalEdgeStyle;rounded=0;orthogonalLoop=1;jettySize=auto;html=1;exitX=0.5;exitY=1;exitDx=0;exitDy=0;exitPerimeter=0;" parent="lZyvXC731JXGp9D0N6sY-21" source="lZyvXC731JXGp9D0N6sY-15" target="lZyvXC731JXGp9D0N6sY-26" edge="1">
          <mxGeometry relative="1" as="geometry" />
        </mxCell>
        <mxCell id="_LRHCQG8xL2Ce-FTLeub-1" value="&lt;font style=&quot;font-size: 17px;&quot;&gt;No&lt;/font&gt;" style="edgeLabel;html=1;align=center;verticalAlign=middle;resizable=0;points=[];" parent="lZyvXC731JXGp9D0N6sY-27" vertex="1" connectable="0">
          <mxGeometry x="-0.32" y="-3" relative="1" as="geometry">
            <mxPoint as="offset" />
          </mxGeometry>
        </mxCell>
        <mxCell id="lZyvXC731JXGp9D0N6sY-15" value="number of &lt;br&gt;papers &lt;br&gt;too low ?" style="strokeWidth=2;html=1;shape=mxgraph.flowchart.decision;whiteSpace=wrap;" parent="lZyvXC731JXGp9D0N6sY-21" vertex="1">
          <mxGeometry x="310" y="700" width="100" height="100" as="geometry" />
        </mxCell>
        <mxCell id="lZyvXC731JXGp9D0N6sY-18" value="" style="edgeStyle=orthogonalEdgeStyle;rounded=0;orthogonalLoop=1;jettySize=auto;html=1;entryDx=0;entryDy=0;" parent="lZyvXC731JXGp9D0N6sY-21" edge="1">
          <mxGeometry relative="1" as="geometry">
            <mxPoint x="235" y="870" as="sourcePoint" />
            <mxPoint x="235" y="870" as="targetPoint" />
          </mxGeometry>
        </mxCell>
        <mxCell id="lZyvXC731JXGp9D0N6sY-19" value="" style="edgeStyle=orthogonalEdgeStyle;rounded=0;orthogonalLoop=1;jettySize=auto;html=1;exitX=0;exitY=0.5;exitDx=0;exitDy=0;endArrow=none;endFill=0;" parent="lZyvXC731JXGp9D0N6sY-21" source="lZyvXC731JXGp9D0N6sY-3" target="lZyvXC731JXGp9D0N6sY-20" edge="1">
          <mxGeometry relative="1" as="geometry">
            <mxPoint x="300" y="620" as="sourcePoint" />
            <mxPoint x="235" y="620" as="targetPoint" />
          </mxGeometry>
        </mxCell>
        <mxCell id="lZyvXC731JXGp9D0N6sY-28" style="edgeStyle=orthogonalEdgeStyle;rounded=0;orthogonalLoop=1;jettySize=auto;html=1;entryX=0.5;entryY=0;entryDx=0;entryDy=0;" parent="lZyvXC731JXGp9D0N6sY-21" source="lZyvXC731JXGp9D0N6sY-20" target="lZyvXC731JXGp9D0N6sY-25" edge="1">
          <mxGeometry relative="1" as="geometry" />
        </mxCell>
        <mxCell id="XPvxMEwbF4WWjBsIhTIU-2" style="edgeStyle=orthogonalEdgeStyle;rounded=0;orthogonalLoop=1;jettySize=auto;html=1;entryX=0.5;entryY=0;entryDx=0;entryDy=0;" parent="lZyvXC731JXGp9D0N6sY-21" source="lZyvXC731JXGp9D0N6sY-20" target="XPvxMEwbF4WWjBsIhTIU-1" edge="1">
          <mxGeometry relative="1" as="geometry" />
        </mxCell>
        <mxCell id="lZyvXC731JXGp9D0N6sY-20" value="" style="shape=waypoint;sketch=0;fillStyle=solid;size=6;pointerEvents=1;points=[];fillColor=none;resizable=0;rotatable=0;perimeter=centerPerimeter;snapToPoint=1;" parent="lZyvXC731JXGp9D0N6sY-21" vertex="1">
          <mxGeometry x="225" y="610" width="20" height="20" as="geometry" />
        </mxCell>
        <mxCell id="lZyvXC731JXGp9D0N6sY-4" style="edgeStyle=orthogonalEdgeStyle;rounded=0;orthogonalLoop=1;jettySize=auto;html=1;exitX=0.5;exitY=1;exitDx=0;exitDy=0;entryX=0.5;entryY=0;entryDx=0;entryDy=0;" parent="lZyvXC731JXGp9D0N6sY-21" source="lZyvXC731JXGp9D0N6sY-23" target="lZyvXC731JXGp9D0N6sY-7" edge="1">
          <mxGeometry relative="1" as="geometry" />
        </mxCell>
        <mxCell id="lZyvXC731JXGp9D0N6sY-26" value="" style="shape=offPageConnector;whiteSpace=wrap;html=1;" parent="lZyvXC731JXGp9D0N6sY-21" vertex="1">
          <mxGeometry x="340" y="850" width="40" height="50" as="geometry" />
        </mxCell>
        <mxCell id="XPvxMEwbF4WWjBsIhTIU-1" value="" style="shape=offPageConnector;whiteSpace=wrap;html=1;fillColor=#b0e3e6;strokeColor=#0e8088;" parent="lZyvXC731JXGp9D0N6sY-21" vertex="1">
          <mxGeometry x="40" y="850" width="40" height="50" as="geometry" />
        </mxCell>
        <mxCell id="lZyvXC731JXGp9D0N6sY-25" value="" style="shape=offPageConnector;whiteSpace=wrap;html=1;fillColor=#fad7ac;strokeColor=#b46504;" parent="lZyvXC731JXGp9D0N6sY-21" vertex="1">
          <mxGeometry x="215" y="850" width="40" height="50" as="geometry" />
        </mxCell>
        <mxCell id="qbNq12CGAHgnGXxTXtMY-3" style="edgeStyle=orthogonalEdgeStyle;rounded=0;orthogonalLoop=1;jettySize=auto;html=1;exitX=0.5;exitY=1;exitDx=0;exitDy=0;entryX=0;entryY=0.25;entryDx=0;entryDy=0;" parent="lZyvXC731JXGp9D0N6sY-21" source="qbNq12CGAHgnGXxTXtMY-1" target="lZyvXC731JXGp9D0N6sY-7" edge="1">
          <mxGeometry relative="1" as="geometry">
            <Array as="points">
              <mxPoint x="150" y="265" />
            </Array>
          </mxGeometry>
        </mxCell>
        <mxCell id="qbNq12CGAHgnGXxTXtMY-1" value="" style="shape=offPageConnector;whiteSpace=wrap;html=1;direction=west;fillColor=#a0522d;strokeColor=#6D1F00;fontColor=#ffffff;" parent="lZyvXC731JXGp9D0N6sY-21" vertex="1">
          <mxGeometry x="130" y="850" width="40" height="50" as="geometry" />
        </mxCell>
      </root>
    </mxGraphModel>
  </diagram>
  <diagram id="RtwxmUlyFSQvYyp28mK5" name="Seite-3">
    <mxGraphModel dx="2033" dy="1164" grid="1" gridSize="10" guides="1" tooltips="1" connect="1" arrows="1" fold="1" page="1" pageScale="1" pageWidth="827" pageHeight="1169" math="0" shadow="1">
      <root>
        <mxCell id="0" />
        <mxCell id="1" parent="0" />
        <mxCell id="GvtSCG381cSzzb0-iVgF-11" style="edgeStyle=orthogonalEdgeStyle;rounded=0;orthogonalLoop=1;jettySize=auto;html=1;exitX=0.5;exitY=1;exitDx=0;exitDy=0;entryX=0.5;entryY=0;entryDx=0;entryDy=0;" parent="1" source="uJWwWS70djDF8ZIwcuIK-2" target="GvtSCG381cSzzb0-iVgF-6" edge="1">
          <mxGeometry relative="1" as="geometry" />
        </mxCell>
        <mxCell id="uJWwWS70djDF8ZIwcuIK-2" value="determine weight for citations in &lt;br&gt;importance &lt;br&gt;metric" style="verticalLabelPosition=middle;verticalAlign=middle;html=1;shape=trapezoid;perimeter=trapezoidPerimeter;whiteSpace=wrap;size=0.23;arcSize=10;flipV=1;labelPosition=center;align=center;" parent="1" vertex="1">
          <mxGeometry x="89" y="220" width="130" height="90" as="geometry" />
        </mxCell>
        <mxCell id="uJWwWS70djDF8ZIwcuIK-3" style="edgeStyle=orthogonalEdgeStyle;rounded=0;orthogonalLoop=1;jettySize=auto;html=1;exitX=1;exitY=0.5;exitDx=0;exitDy=0;entryX=0.5;entryY=0;entryDx=0;entryDy=0;entryPerimeter=0;" parent="1" source="uJWwWS70djDF8ZIwcuIK-4" target="uJWwWS70djDF8ZIwcuIK-17" edge="1">
          <mxGeometry relative="1" as="geometry" />
        </mxCell>
        <mxCell id="uJWwWS70djDF8ZIwcuIK-4" value="determine &lt;br&gt;parameters &lt;br&gt;for LDA model" style="verticalLabelPosition=middle;verticalAlign=middle;html=1;shape=trapezoid;perimeter=trapezoidPerimeter;whiteSpace=wrap;size=0.23;arcSize=10;flipV=1;labelPosition=center;align=center;" parent="1" vertex="1">
          <mxGeometry x="339" y="220" width="130" height="90" as="geometry" />
        </mxCell>
        <mxCell id="uJWwWS70djDF8ZIwcuIK-5" style="edgeStyle=orthogonalEdgeStyle;rounded=0;orthogonalLoop=1;jettySize=auto;html=1;exitX=1;exitY=0.5;exitDx=0;exitDy=0;entryX=0;entryY=0.5;entryDx=0;entryDy=0;entryPerimeter=0;" parent="1" source="uJWwWS70djDF8ZIwcuIK-28" target="uJWwWS70djDF8ZIwcuIK-24" edge="1">
          <mxGeometry relative="1" as="geometry" />
        </mxCell>
        <mxCell id="uJWwWS70djDF8ZIwcuIK-6" style="edgeStyle=orthogonalEdgeStyle;rounded=0;orthogonalLoop=1;jettySize=auto;html=1;exitX=0.5;exitY=1;exitDx=0;exitDy=0;entryX=0;entryY=0.5;entryDx=0;entryDy=0;entryPerimeter=0;" parent="1" source="uJWwWS70djDF8ZIwcuIK-7" target="uJWwWS70djDF8ZIwcuIK-23" edge="1">
          <mxGeometry relative="1" as="geometry" />
        </mxCell>
        <mxCell id="uJWwWS70djDF8ZIwcuIK-7" value="number of topics" style="html=1;strokeWidth=2;shape=manualInput;whiteSpace=wrap;rounded=1;size=26;arcSize=11;" parent="1" vertex="1">
          <mxGeometry x="379" y="410" width="100" height="60" as="geometry" />
        </mxCell>
        <mxCell id="uJWwWS70djDF8ZIwcuIK-8" style="edgeStyle=orthogonalEdgeStyle;rounded=0;orthogonalLoop=1;jettySize=auto;html=1;exitX=0.5;exitY=1;exitDx=0;exitDy=0;entryX=1;entryY=0.5;entryDx=0;entryDy=0;entryPerimeter=0;" parent="1" source="uJWwWS70djDF8ZIwcuIK-9" target="uJWwWS70djDF8ZIwcuIK-23" edge="1">
          <mxGeometry relative="1" as="geometry" />
        </mxCell>
        <mxCell id="uJWwWS70djDF8ZIwcuIK-9" value="passes" style="html=1;strokeWidth=2;shape=manualInput;whiteSpace=wrap;rounded=1;size=26;arcSize=11;" parent="1" vertex="1">
          <mxGeometry x="580" y="410" width="100" height="60" as="geometry" />
        </mxCell>
        <mxCell id="uJWwWS70djDF8ZIwcuIK-10" style="edgeStyle=orthogonalEdgeStyle;rounded=0;orthogonalLoop=1;jettySize=auto;html=1;exitX=0.5;exitY=1;exitDx=0;exitDy=0;entryX=0.5;entryY=0;entryDx=0;entryDy=0;entryPerimeter=0;" parent="1" source="uJWwWS70djDF8ZIwcuIK-11" target="uJWwWS70djDF8ZIwcuIK-23" edge="1">
          <mxGeometry relative="1" as="geometry" />
        </mxCell>
        <mxCell id="uJWwWS70djDF8ZIwcuIK-11" value="iterations" style="html=1;strokeWidth=2;shape=manualInput;whiteSpace=wrap;rounded=1;size=26;arcSize=11;" parent="1" vertex="1">
          <mxGeometry x="480" y="410" width="100" height="60" as="geometry" />
        </mxCell>
        <mxCell id="WSpEFlLhENgGFqYpKmyY-2" style="edgeStyle=orthogonalEdgeStyle;rounded=0;orthogonalLoop=1;jettySize=auto;html=1;exitX=0.5;exitY=1;exitDx=0;exitDy=0;entryX=0.5;entryY=-0.125;entryDx=0;entryDy=0;entryPerimeter=0;" parent="1" source="uJWwWS70djDF8ZIwcuIK-12" target="WSpEFlLhENgGFqYpKmyY-1" edge="1">
          <mxGeometry relative="1" as="geometry" />
        </mxCell>
        <mxCell id="uJWwWS70djDF8ZIwcuIK-12" value="number of models" style="html=1;strokeWidth=2;shape=manualInput;whiteSpace=wrap;rounded=1;size=26;arcSize=11;" parent="1" vertex="1">
          <mxGeometry x="680" y="410" width="100" height="60" as="geometry" />
        </mxCell>
        <mxCell id="uJWwWS70djDF8ZIwcuIK-13" style="edgeStyle=orthogonalEdgeStyle;rounded=0;orthogonalLoop=1;jettySize=auto;html=1;entryX=0.5;entryY=0;entryDx=0;entryDy=0;" parent="1" source="uJWwWS70djDF8ZIwcuIK-17" target="uJWwWS70djDF8ZIwcuIK-7" edge="1">
          <mxGeometry relative="1" as="geometry" />
        </mxCell>
        <mxCell id="uJWwWS70djDF8ZIwcuIK-14" style="edgeStyle=orthogonalEdgeStyle;rounded=0;orthogonalLoop=1;jettySize=auto;html=1;exitX=0.5;exitY=1;exitDx=0;exitDy=0;exitPerimeter=0;entryX=0.5;entryY=0;entryDx=0;entryDy=0;" parent="1" source="uJWwWS70djDF8ZIwcuIK-17" target="uJWwWS70djDF8ZIwcuIK-11" edge="1">
          <mxGeometry relative="1" as="geometry" />
        </mxCell>
        <mxCell id="uJWwWS70djDF8ZIwcuIK-15" style="edgeStyle=orthogonalEdgeStyle;rounded=0;orthogonalLoop=1;jettySize=auto;html=1;exitX=0.78;exitY=0.5;exitDx=0;exitDy=0;exitPerimeter=0;entryX=0.5;entryY=0;entryDx=0;entryDy=0;" parent="1" source="uJWwWS70djDF8ZIwcuIK-17" target="uJWwWS70djDF8ZIwcuIK-9" edge="1">
          <mxGeometry relative="1" as="geometry" />
        </mxCell>
        <mxCell id="uJWwWS70djDF8ZIwcuIK-16" style="edgeStyle=orthogonalEdgeStyle;rounded=0;orthogonalLoop=1;jettySize=auto;html=1;exitX=0.78;exitY=0.5;exitDx=0;exitDy=0;exitPerimeter=0;entryX=0.5;entryY=0;entryDx=0;entryDy=0;" parent="1" source="uJWwWS70djDF8ZIwcuIK-17" target="uJWwWS70djDF8ZIwcuIK-12" edge="1">
          <mxGeometry relative="1" as="geometry" />
        </mxCell>
        <mxCell id="uJWwWS70djDF8ZIwcuIK-17" value="" style="strokeWidth=2;html=1;shape=mxgraph.flowchart.extract_or_measurement;whiteSpace=wrap;" parent="1" vertex="1">
          <mxGeometry x="508" y="350" width="44" height="25" as="geometry" />
        </mxCell>
        <mxCell id="uJWwWS70djDF8ZIwcuIK-22" style="edgeStyle=orthogonalEdgeStyle;rounded=0;orthogonalLoop=1;jettySize=auto;html=1;exitX=0.5;exitY=1;exitDx=0;exitDy=0;exitPerimeter=0;entryX=0.5;entryY=0;entryDx=0;entryDy=0;entryPerimeter=0;" parent="1" source="uJWwWS70djDF8ZIwcuIK-23" target="uJWwWS70djDF8ZIwcuIK-24" edge="1">
          <mxGeometry relative="1" as="geometry" />
        </mxCell>
        <mxCell id="uJWwWS70djDF8ZIwcuIK-23" value="" style="strokeWidth=2;html=1;shape=mxgraph.flowchart.merge_or_storage;whiteSpace=wrap;" parent="1" vertex="1">
          <mxGeometry x="510" y="509" width="40" height="30" as="geometry" />
        </mxCell>
        <mxCell id="GvtSCG381cSzzb0-iVgF-9" style="edgeStyle=orthogonalEdgeStyle;rounded=0;orthogonalLoop=1;jettySize=auto;html=1;exitX=0.5;exitY=1;exitDx=0;exitDy=0;exitPerimeter=0;entryX=0.5;entryY=0;entryDx=0;entryDy=0;" parent="1" source="uJWwWS70djDF8ZIwcuIK-24" target="GvtSCG381cSzzb0-iVgF-7" edge="1">
          <mxGeometry relative="1" as="geometry" />
        </mxCell>
        <mxCell id="uJWwWS70djDF8ZIwcuIK-24" value="" style="strokeWidth=2;html=1;shape=mxgraph.flowchart.merge_or_storage;whiteSpace=wrap;" parent="1" vertex="1">
          <mxGeometry x="510" y="620" width="40" height="30" as="geometry" />
        </mxCell>
        <mxCell id="uJWwWS70djDF8ZIwcuIK-27" value="" style="edgeStyle=orthogonalEdgeStyle;rounded=0;orthogonalLoop=1;jettySize=auto;html=1;exitX=1;exitY=0.5;exitDx=0;exitDy=0;entryX=0;entryY=0.5;entryDx=0;entryDy=0;entryPerimeter=0;endArrow=none;endFill=0;" parent="1" source="uJWwWS70djDF8ZIwcuIK-34" target="uJWwWS70djDF8ZIwcuIK-28" edge="1">
          <mxGeometry relative="1" as="geometry">
            <mxPoint x="329" y="620" as="sourcePoint" />
            <mxPoint x="539" y="620" as="targetPoint" />
          </mxGeometry>
        </mxCell>
        <mxCell id="GvtSCG381cSzzb0-iVgF-10" style="edgeStyle=orthogonalEdgeStyle;rounded=0;orthogonalLoop=1;jettySize=auto;html=1;exitX=0.5;exitY=1;exitDx=0;exitDy=0;exitPerimeter=0;entryX=0.5;entryY=0;entryDx=0;entryDy=0;" parent="1" source="uJWwWS70djDF8ZIwcuIK-28" target="GvtSCG381cSzzb0-iVgF-8" edge="1">
          <mxGeometry relative="1" as="geometry" />
        </mxCell>
        <mxCell id="uJWwWS70djDF8ZIwcuIK-28" value="cleaned token sets" style="strokeWidth=2;html=1;shape=mxgraph.flowchart.stored_data;whiteSpace=wrap;" parent="1" vertex="1">
          <mxGeometry x="379" y="605" width="100" height="60" as="geometry" />
        </mxCell>
        <mxCell id="27Q-AzCAt347Gs8eWRah-2" style="edgeStyle=orthogonalEdgeStyle;rounded=0;orthogonalLoop=1;jettySize=auto;html=1;exitX=0.5;exitY=1;exitDx=0;exitDy=0;entryX=0.5;entryY=0;entryDx=0;entryDy=0;entryPerimeter=0;" parent="1" source="J0mfwwYSFipti-b0hBh8-1" target="27Q-AzCAt347Gs8eWRah-1" edge="1">
          <mxGeometry relative="1" as="geometry" />
        </mxCell>
        <mxCell id="J0mfwwYSFipti-b0hBh8-1" value="" style="shape=offPageConnector;whiteSpace=wrap;html=1;" parent="1" vertex="1">
          <mxGeometry x="259" y="20" width="40" height="50" as="geometry" />
        </mxCell>
        <mxCell id="27Q-AzCAt347Gs8eWRah-3" style="edgeStyle=orthogonalEdgeStyle;rounded=0;orthogonalLoop=1;jettySize=auto;html=1;exitX=1;exitY=0.5;exitDx=0;exitDy=0;exitPerimeter=0;entryX=0.5;entryY=0;entryDx=0;entryDy=0;" parent="1" source="27Q-AzCAt347Gs8eWRah-1" target="uJWwWS70djDF8ZIwcuIK-4" edge="1">
          <mxGeometry relative="1" as="geometry" />
        </mxCell>
        <mxCell id="27Q-AzCAt347Gs8eWRah-5" style="edgeStyle=orthogonalEdgeStyle;rounded=0;orthogonalLoop=1;jettySize=auto;html=1;exitX=0.5;exitY=1;exitDx=0;exitDy=0;exitPerimeter=0;entryX=0.5;entryY=0;entryDx=0;entryDy=0;" parent="1" source="27Q-AzCAt347Gs8eWRah-1" target="uJWwWS70djDF8ZIwcuIK-31" edge="1">
          <mxGeometry relative="1" as="geometry" />
        </mxCell>
        <mxCell id="B00_NCjku5HcwHmdPQ6d-3" style="edgeStyle=orthogonalEdgeStyle;rounded=0;orthogonalLoop=1;jettySize=auto;html=1;exitX=0;exitY=0.5;exitDx=0;exitDy=0;exitPerimeter=0;entryX=1;entryY=0.5;entryDx=0;entryDy=0;entryPerimeter=0;" parent="1" source="27Q-AzCAt347Gs8eWRah-1" target="B00_NCjku5HcwHmdPQ6d-1" edge="1">
          <mxGeometry relative="1" as="geometry" />
        </mxCell>
        <mxCell id="27Q-AzCAt347Gs8eWRah-1" value="" style="strokeWidth=2;html=1;shape=mxgraph.flowchart.merge_or_storage;whiteSpace=wrap;" parent="1" vertex="1">
          <mxGeometry x="259" y="150" width="40" height="30" as="geometry" />
        </mxCell>
        <mxCell id="uJWwWS70djDF8ZIwcuIK-30" value="preproccessing" style="swimlane;whiteSpace=wrap;html=1;fillColor=#fad7ac;strokeColor=#b46504;strokeWidth=3;" parent="1" vertex="1">
          <mxGeometry x="194" y="310" width="165" height="390" as="geometry">
            <mxRectangle x="275" y="970" width="130" height="30" as="alternateBounds" />
          </mxGeometry>
        </mxCell>
        <mxCell id="uJWwWS70djDF8ZIwcuIK-31" value="combine title and abstract" style="rounded=0;whiteSpace=wrap;html=1;" parent="uJWwWS70djDF8ZIwcuIK-30" vertex="1">
          <mxGeometry x="25" y="50" width="120" height="60" as="geometry" />
        </mxCell>
        <mxCell id="uJWwWS70djDF8ZIwcuIK-32" value="tokenize" style="rounded=0;whiteSpace=wrap;html=1;" parent="uJWwWS70djDF8ZIwcuIK-30" vertex="1">
          <mxGeometry x="22.5" y="130" width="120" height="60" as="geometry" />
        </mxCell>
        <mxCell id="uJWwWS70djDF8ZIwcuIK-33" style="edgeStyle=orthogonalEdgeStyle;rounded=0;orthogonalLoop=1;jettySize=auto;html=1;exitX=0.5;exitY=1;exitDx=0;exitDy=0;entryX=0.5;entryY=0;entryDx=0;entryDy=0;" parent="uJWwWS70djDF8ZIwcuIK-30" source="uJWwWS70djDF8ZIwcuIK-31" target="uJWwWS70djDF8ZIwcuIK-32" edge="1">
          <mxGeometry relative="1" as="geometry" />
        </mxCell>
        <mxCell id="uJWwWS70djDF8ZIwcuIK-34" value="NLP&amp;nbsp;proccessing" style="verticalLabelPosition=bottom;verticalAlign=top;html=1;shape=process;whiteSpace=wrap;rounded=1;size=0.14;arcSize=6;fillColor=#fad7ac;strokeColor=#b46504;" parent="uJWwWS70djDF8ZIwcuIK-30" vertex="1">
          <mxGeometry x="35" y="295" width="100" height="60" as="geometry" />
        </mxCell>
        <mxCell id="uJWwWS70djDF8ZIwcuIK-35" style="edgeStyle=orthogonalEdgeStyle;rounded=0;orthogonalLoop=1;jettySize=auto;html=1;exitX=0.5;exitY=1;exitDx=0;exitDy=0;" parent="uJWwWS70djDF8ZIwcuIK-30" source="uJWwWS70djDF8ZIwcuIK-32" target="uJWwWS70djDF8ZIwcuIK-34" edge="1">
          <mxGeometry relative="1" as="geometry" />
        </mxCell>
        <mxCell id="uJWwWS70djDF8ZIwcuIK-36" value="token set per &lt;br&gt;doc" style="shape=parallelogram;html=1;strokeWidth=2;perimeter=parallelogramPerimeter;whiteSpace=wrap;rounded=1;arcSize=12;size=0.23;" parent="uJWwWS70djDF8ZIwcuIK-30" vertex="1">
          <mxGeometry x="32.5" y="210" width="100" height="60" as="geometry" />
        </mxCell>
        <mxCell id="B00_NCjku5HcwHmdPQ6d-2" style="edgeStyle=orthogonalEdgeStyle;rounded=0;orthogonalLoop=1;jettySize=auto;html=1;exitX=0.5;exitY=1;exitDx=0;exitDy=0;exitPerimeter=0;entryX=0.5;entryY=0;entryDx=0;entryDy=0;" parent="1" source="B00_NCjku5HcwHmdPQ6d-1" target="uJWwWS70djDF8ZIwcuIK-2" edge="1">
          <mxGeometry relative="1" as="geometry" />
        </mxCell>
        <mxCell id="B00_NCjku5HcwHmdPQ6d-1" value="" style="strokeWidth=2;html=1;shape=mxgraph.flowchart.merge_or_storage;whiteSpace=wrap;" parent="1" vertex="1">
          <mxGeometry x="134" y="150" width="40" height="30" as="geometry" />
        </mxCell>
        <mxCell id="pPOxWMI5sJfWMJaz9Rvf-2" style="edgeStyle=orthogonalEdgeStyle;rounded=0;orthogonalLoop=1;jettySize=auto;html=1;exitX=0.5;exitY=1;exitDx=0;exitDy=0;entryX=0.5;entryY=0;entryDx=0;entryDy=0;entryPerimeter=0;" parent="1" source="pPOxWMI5sJfWMJaz9Rvf-1" target="B00_NCjku5HcwHmdPQ6d-1" edge="1">
          <mxGeometry relative="1" as="geometry" />
        </mxCell>
        <mxCell id="pPOxWMI5sJfWMJaz9Rvf-1" value="" style="shape=offPageConnector;whiteSpace=wrap;html=1;fillColor=#fad7ac;strokeColor=#b46504;" parent="1" vertex="1">
          <mxGeometry x="134" y="20" width="40" height="50" as="geometry" />
        </mxCell>
        <mxCell id="GvtSCG381cSzzb0-iVgF-5" style="edgeStyle=orthogonalEdgeStyle;rounded=0;orthogonalLoop=1;jettySize=auto;html=1;exitX=0.5;exitY=1;exitDx=0;exitDy=0;entryX=0.5;entryY=0;entryDx=0;entryDy=0;" parent="1" source="pPOxWMI5sJfWMJaz9Rvf-3" target="GvtSCG381cSzzb0-iVgF-4" edge="1">
          <mxGeometry relative="1" as="geometry" />
        </mxCell>
        <mxCell id="pPOxWMI5sJfWMJaz9Rvf-3" value="" style="shape=offPageConnector;whiteSpace=wrap;html=1;fillColor=#b0e3e6;strokeColor=#0e8088;" parent="1" vertex="1">
          <mxGeometry x="9" y="20" width="40" height="50" as="geometry" />
        </mxCell>
        <mxCell id="GvtSCG381cSzzb0-iVgF-3" style="edgeStyle=orthogonalEdgeStyle;rounded=0;orthogonalLoop=1;jettySize=auto;html=1;exitX=0.5;exitY=1;exitDx=0;exitDy=0;entryX=1;entryY=0.25;entryDx=0;entryDy=0;" parent="1" source="GvtSCG381cSzzb0-iVgF-1" target="uJWwWS70djDF8ZIwcuIK-4" edge="1">
          <mxGeometry relative="1" as="geometry">
            <Array as="points">
              <mxPoint x="787" y="245" />
            </Array>
          </mxGeometry>
        </mxCell>
        <mxCell id="GvtSCG381cSzzb0-iVgF-1" value="" style="shape=offPageConnector;whiteSpace=wrap;html=1;fillColor=#fad9d5;strokeColor=#ae4132;direction=west;" parent="1" vertex="1">
          <mxGeometry x="770" y="1000" width="40" height="50" as="geometry" />
        </mxCell>
        <mxCell id="GvtSCG381cSzzb0-iVgF-4" value="" style="shape=offPageConnector;whiteSpace=wrap;html=1;fillColor=#b0e3e6;strokeColor=#0e8088;" parent="1" vertex="1">
          <mxGeometry x="9" y="1000" width="40" height="50" as="geometry" />
        </mxCell>
        <mxCell id="GvtSCG381cSzzb0-iVgF-6" value="" style="shape=offPageConnector;whiteSpace=wrap;html=1;fillColor=#ffe6cc;strokeColor=#d79b00;" parent="1" vertex="1">
          <mxGeometry x="134" y="1000" width="40" height="50" as="geometry" />
        </mxCell>
        <mxCell id="GvtSCG381cSzzb0-iVgF-7" value="" style="shape=offPageConnector;whiteSpace=wrap;html=1;fillColor=#e1d5e7;strokeColor=#9673a6;" parent="1" vertex="1">
          <mxGeometry x="510" y="1000" width="40" height="50" as="geometry" />
        </mxCell>
        <mxCell id="GvtSCG381cSzzb0-iVgF-8" value="" style="shape=offPageConnector;whiteSpace=wrap;html=1;fillColor=#d5e8d4;strokeColor=#82b366;" parent="1" vertex="1">
          <mxGeometry x="409" y="1000" width="40" height="50" as="geometry" />
        </mxCell>
        <mxCell id="WSpEFlLhENgGFqYpKmyY-1" value="" style="shape=offPageConnector;whiteSpace=wrap;html=1;fillColor=#f5f5f5;strokeColor=#666666;fontColor=#333333;" parent="1" vertex="1">
          <mxGeometry x="710" y="1000" width="40" height="50" as="geometry" />
        </mxCell>
        <mxCell id="Aymzpe39kEBZ7ut-Fq2X-5" value="" style="edgeStyle=orthogonalEdgeStyle;rounded=0;orthogonalLoop=1;jettySize=auto;html=1;" parent="1" source="Aymzpe39kEBZ7ut-Fq2X-1" target="Aymzpe39kEBZ7ut-Fq2X-4" edge="1">
          <mxGeometry relative="1" as="geometry" />
        </mxCell>
        <mxCell id="Aymzpe39kEBZ7ut-Fq2X-1" value="" style="shape=offPageConnector;whiteSpace=wrap;html=1;direction=west;fillColor=#a0522d;strokeColor=#6D1F00;fontColor=#ffffff;" parent="1" vertex="1">
          <mxGeometry x="70" y="1000" width="40" height="50" as="geometry" />
        </mxCell>
        <mxCell id="Aymzpe39kEBZ7ut-Fq2X-4" value="" style="shape=offPageConnector;whiteSpace=wrap;html=1;direction=west;fillColor=#a0522d;strokeColor=#6D1F00;fontColor=#ffffff;" parent="1" vertex="1">
          <mxGeometry x="60" y="20" width="40" height="50" as="geometry" />
        </mxCell>
      </root>
    </mxGraphModel>
  </diagram>
  <diagram id="VapV6oLI8cftahlxuEh0" name="Seite-4">
    <mxGraphModel dx="2033" dy="-5" grid="1" gridSize="10" guides="1" tooltips="1" connect="1" arrows="1" fold="1" page="1" pageScale="1" pageWidth="827" pageHeight="1169" math="0" shadow="1">
      <root>
        <mxCell id="0" />
        <mxCell id="1" parent="0" />
        <mxCell id="IFCx0sAwObZph2IbAVtg-37" style="edgeStyle=orthogonalEdgeStyle;rounded=0;orthogonalLoop=1;jettySize=auto;html=1;exitX=0;exitY=0.5;exitDx=0;exitDy=0;exitPerimeter=0;entryX=0;entryY=0.5;entryDx=0;entryDy=0;" parent="1" source="IFCx0sAwObZph2IbAVtg-40" target="IFCx0sAwObZph2IbAVtg-44" edge="1">
          <mxGeometry relative="1" as="geometry">
            <Array as="points">
              <mxPoint x="400" y="1844" />
              <mxPoint x="400" y="1504" />
            </Array>
          </mxGeometry>
        </mxCell>
        <mxCell id="IFCx0sAwObZph2IbAVtg-38" value="&lt;font style=&quot;font-size: 17px;&quot;&gt;No&lt;/font&gt;" style="edgeLabel;html=1;align=center;verticalAlign=middle;resizable=0;points=[];" parent="IFCx0sAwObZph2IbAVtg-37" vertex="1" connectable="0">
          <mxGeometry y="-1" relative="1" as="geometry">
            <mxPoint y="-30" as="offset" />
          </mxGeometry>
        </mxCell>
        <mxCell id="IFCx0sAwObZph2IbAVtg-39" style="edgeStyle=orthogonalEdgeStyle;rounded=0;orthogonalLoop=1;jettySize=auto;html=1;exitX=0.5;exitY=1;exitDx=0;exitDy=0;exitPerimeter=0;entryX=0.5;entryY=0;entryDx=0;entryDy=0;" parent="1" source="IFCx0sAwObZph2IbAVtg-40" target="IFCx0sAwObZph2IbAVtg-52" edge="1">
          <mxGeometry relative="1" as="geometry" />
        </mxCell>
        <mxCell id="IFCx0sAwObZph2IbAVtg-40" value="== number of models ?" style="strokeWidth=2;html=1;shape=mxgraph.flowchart.decision;whiteSpace=wrap;" parent="1" vertex="1">
          <mxGeometry x="440" y="1794" width="100" height="100" as="geometry" />
        </mxCell>
        <mxCell id="IFCx0sAwObZph2IbAVtg-41" style="edgeStyle=orthogonalEdgeStyle;rounded=0;orthogonalLoop=1;jettySize=auto;html=1;exitX=0.5;exitY=1;exitDx=0;exitDy=0;entryX=0.5;entryY=0;entryDx=0;entryDy=0;" parent="1" source="IFCx0sAwObZph2IbAVtg-42" target="IFCx0sAwObZph2IbAVtg-44" edge="1">
          <mxGeometry relative="1" as="geometry" />
        </mxCell>
        <mxCell id="IFCx0sAwObZph2IbAVtg-42" value="start ATM construction" style="shape=loopLimit;whiteSpace=wrap;html=1;" parent="1" vertex="1">
          <mxGeometry x="440" y="1394" width="100" height="60" as="geometry" />
        </mxCell>
        <mxCell id="IFCx0sAwObZph2IbAVtg-43" style="edgeStyle=orthogonalEdgeStyle;rounded=0;orthogonalLoop=1;jettySize=auto;html=1;exitX=0.5;exitY=1;exitDx=0;exitDy=0;entryX=0.5;entryY=0;entryDx=0;entryDy=0;" parent="1" source="IFCx0sAwObZph2IbAVtg-44" target="IFCx0sAwObZph2IbAVtg-48" edge="1">
          <mxGeometry relative="1" as="geometry" />
        </mxCell>
        <mxCell id="IFCx0sAwObZph2IbAVtg-44" value="make LDA model" style="rounded=0;whiteSpace=wrap;html=1;" parent="1" vertex="1">
          <mxGeometry x="430" y="1474" width="120" height="60" as="geometry" />
        </mxCell>
        <mxCell id="IFCx0sAwObZph2IbAVtg-45" style="edgeStyle=orthogonalEdgeStyle;rounded=0;orthogonalLoop=1;jettySize=auto;html=1;exitX=0.5;exitY=1;exitDx=0;exitDy=0;exitPerimeter=0;entryX=0.5;entryY=0;entryDx=0;entryDy=0;entryPerimeter=0;" parent="1" source="IFCx0sAwObZph2IbAVtg-46" target="IFCx0sAwObZph2IbAVtg-40" edge="1">
          <mxGeometry relative="1" as="geometry" />
        </mxCell>
        <mxCell id="FULLrduSCNNu4i-aCq_8-3" style="edgeStyle=orthogonalEdgeStyle;rounded=0;orthogonalLoop=1;jettySize=auto;html=1;exitX=0;exitY=0.5;exitDx=0;exitDy=0;exitPerimeter=0;entryX=0.5;entryY=0;entryDx=0;entryDy=0;" parent="1" source="IFCx0sAwObZph2IbAVtg-46" target="FULLrduSCNNu4i-aCq_8-2" edge="1">
          <mxGeometry relative="1" as="geometry" />
        </mxCell>
        <mxCell id="IFCx0sAwObZph2IbAVtg-46" value="ATM model" style="strokeWidth=2;html=1;shape=mxgraph.flowchart.stored_data;whiteSpace=wrap;" parent="1" vertex="1">
          <mxGeometry x="440" y="1684" width="100" height="60" as="geometry" />
        </mxCell>
        <mxCell id="IFCx0sAwObZph2IbAVtg-47" style="edgeStyle=orthogonalEdgeStyle;rounded=0;orthogonalLoop=1;jettySize=auto;html=1;exitX=0.5;exitY=1;exitDx=0;exitDy=0;entryX=0.5;entryY=0;entryDx=0;entryDy=0;entryPerimeter=0;" parent="1" source="IFCx0sAwObZph2IbAVtg-48" target="IFCx0sAwObZph2IbAVtg-50" edge="1">
          <mxGeometry relative="1" as="geometry" />
        </mxCell>
        <mxCell id="IFCx0sAwObZph2IbAVtg-48" value="LDA model" style="shape=parallelogram;html=1;strokeWidth=2;perimeter=parallelogramPerimeter;whiteSpace=wrap;rounded=1;arcSize=12;size=0.23;" parent="1" vertex="1">
          <mxGeometry x="440" y="1554" width="100" height="60" as="geometry" />
        </mxCell>
        <mxCell id="IFCx0sAwObZph2IbAVtg-49" style="edgeStyle=orthogonalEdgeStyle;rounded=0;orthogonalLoop=1;jettySize=auto;html=1;exitX=0.5;exitY=1;exitDx=0;exitDy=0;exitPerimeter=0;" parent="1" source="IFCx0sAwObZph2IbAVtg-50" target="IFCx0sAwObZph2IbAVtg-46" edge="1">
          <mxGeometry relative="1" as="geometry" />
        </mxCell>
        <mxCell id="IFCx0sAwObZph2IbAVtg-50" value="" style="verticalLabelPosition=bottom;verticalAlign=top;html=1;shape=mxgraph.flowchart.or;" parent="1" vertex="1">
          <mxGeometry x="475" y="1634" width="30" height="30" as="geometry" />
        </mxCell>
        <mxCell id="IFCx0sAwObZph2IbAVtg-51" style="edgeStyle=orthogonalEdgeStyle;rounded=0;orthogonalLoop=1;jettySize=auto;html=1;exitX=0.5;exitY=1;exitDx=0;exitDy=0;" parent="1" source="IFCx0sAwObZph2IbAVtg-52" target="IFCx0sAwObZph2IbAVtg-53" edge="1">
          <mxGeometry relative="1" as="geometry" />
        </mxCell>
        <mxCell id="IFCx0sAwObZph2IbAVtg-52" value="determine model &lt;br&gt;quality" style="verticalLabelPosition=middle;verticalAlign=middle;html=1;shape=trapezoid;perimeter=trapezoidPerimeter;whiteSpace=wrap;size=0.23;arcSize=10;flipV=1;labelPosition=center;align=center;" parent="1" vertex="1">
          <mxGeometry x="425" y="1934" width="130" height="90" as="geometry" />
        </mxCell>
        <mxCell id="8rr_IAGiVWdvV_jgiNx4-1" style="edgeStyle=orthogonalEdgeStyle;rounded=0;orthogonalLoop=1;jettySize=auto;html=1;exitX=1;exitY=0.5;exitDx=0;exitDy=0;exitPerimeter=0;entryX=0.5;entryY=0;entryDx=0;entryDy=0;" parent="1" source="IFCx0sAwObZph2IbAVtg-53" target="UVAJHkN_hNqqy0k5uIBD-5" edge="1">
          <mxGeometry relative="1" as="geometry" />
        </mxCell>
        <mxCell id="EwSFLIqrqU2_7gbEGjls-1" style="edgeStyle=orthogonalEdgeStyle;rounded=0;orthogonalLoop=1;jettySize=auto;html=1;exitX=0.5;exitY=1;exitDx=0;exitDy=0;exitPerimeter=0;" parent="1" source="IFCx0sAwObZph2IbAVtg-53" target="UVAJHkN_hNqqy0k5uIBD-4" edge="1">
          <mxGeometry relative="1" as="geometry" />
        </mxCell>
        <mxCell id="KuoHODz5gdIZ4aZpfG27-2" value="&lt;font style=&quot;font-size: 17px;&quot;&gt;Yes&lt;/font&gt;" style="edgeLabel;html=1;align=center;verticalAlign=middle;resizable=0;points=[];" parent="EwSFLIqrqU2_7gbEGjls-1" vertex="1" connectable="0">
          <mxGeometry x="-0.2791" y="3" relative="1" as="geometry">
            <mxPoint as="offset" />
          </mxGeometry>
        </mxCell>
        <mxCell id="IFCx0sAwObZph2IbAVtg-53" value="model quality is accepted" style="strokeWidth=2;html=1;shape=mxgraph.flowchart.decision;whiteSpace=wrap;" parent="1" vertex="1">
          <mxGeometry x="440" y="2054" width="100" height="100" as="geometry" />
        </mxCell>
        <mxCell id="VY37GezE8MTsbImz4TIq-2" style="edgeStyle=orthogonalEdgeStyle;rounded=0;orthogonalLoop=1;jettySize=auto;html=1;exitX=0.5;exitY=1;exitDx=0;exitDy=0;" parent="1" source="VY37GezE8MTsbImz4TIq-1" target="IFCx0sAwObZph2IbAVtg-42" edge="1">
          <mxGeometry relative="1" as="geometry" />
        </mxCell>
        <mxCell id="VY37GezE8MTsbImz4TIq-1" value="" style="shape=offPageConnector;whiteSpace=wrap;html=1;fillColor=#e1d5e7;strokeColor=#9673a6;" parent="1" vertex="1">
          <mxGeometry x="470" y="1210" width="40" height="50" as="geometry" />
        </mxCell>
        <mxCell id="VY37GezE8MTsbImz4TIq-5" style="edgeStyle=orthogonalEdgeStyle;rounded=0;orthogonalLoop=1;jettySize=auto;html=1;exitX=0.5;exitY=1;exitDx=0;exitDy=0;entryX=1;entryY=0.5;entryDx=0;entryDy=0;entryPerimeter=0;" parent="1" source="VY37GezE8MTsbImz4TIq-3" target="IFCx0sAwObZph2IbAVtg-40" edge="1">
          <mxGeometry relative="1" as="geometry" />
        </mxCell>
        <mxCell id="VY37GezE8MTsbImz4TIq-3" value="" style="shape=offPageConnector;whiteSpace=wrap;html=1;fillColor=#f5f5f5;strokeColor=#666666;fontColor=#333333;" parent="1" vertex="1">
          <mxGeometry x="570" y="1210" width="40" height="50" as="geometry" />
        </mxCell>
        <mxCell id="UVAJHkN_hNqqy0k5uIBD-2" value="" style="shape=offPageConnector;whiteSpace=wrap;html=1;fillColor=#ffe6cc;strokeColor=#d79b00;" parent="1" vertex="1">
          <mxGeometry x="120" y="2240" width="40" height="50" as="geometry" />
        </mxCell>
        <mxCell id="UVAJHkN_hNqqy0k5uIBD-4" value="" style="shape=offPageConnector;whiteSpace=wrap;html=1;fillColor=#e1d5e7;strokeColor=#9673a6;fontStyle=1" parent="1" vertex="1">
          <mxGeometry x="470" y="2250" width="40" height="50" as="geometry" />
        </mxCell>
        <mxCell id="UVAJHkN_hNqqy0k5uIBD-5" value="" style="shape=offPageConnector;whiteSpace=wrap;html=1;fillColor=#f8cecc;strokeColor=#b85450;fontStyle=1;direction=west;" parent="1" vertex="1">
          <mxGeometry x="720" y="1210" width="40" height="50" as="geometry" />
        </mxCell>
        <mxCell id="4C22kY240Fwtcm16sTom-1" value="" style="shape=offPageConnector;whiteSpace=wrap;html=1;fillColor=#b0e3e6;strokeColor=#0e8088;" parent="1" vertex="1">
          <mxGeometry x="20" y="2240" width="40" height="50" as="geometry" />
        </mxCell>
        <mxCell id="4C22kY240Fwtcm16sTom-3" style="edgeStyle=orthogonalEdgeStyle;rounded=0;orthogonalLoop=1;jettySize=auto;html=1;exitX=0.5;exitY=1;exitDx=0;exitDy=0;entryX=0.5;entryY=0;entryDx=0;entryDy=0;" parent="1" source="4C22kY240Fwtcm16sTom-2" target="4C22kY240Fwtcm16sTom-1" edge="1">
          <mxGeometry relative="1" as="geometry" />
        </mxCell>
        <mxCell id="4C22kY240Fwtcm16sTom-2" value="" style="shape=offPageConnector;whiteSpace=wrap;html=1;fillColor=#b0e3e6;strokeColor=#0e8088;" parent="1" vertex="1">
          <mxGeometry x="20" y="1210" width="40" height="50" as="geometry" />
        </mxCell>
        <mxCell id="_9Bs-8DGk_cBSsAxComQ-2" style="edgeStyle=orthogonalEdgeStyle;rounded=0;orthogonalLoop=1;jettySize=auto;html=1;exitX=0.5;exitY=1;exitDx=0;exitDy=0;entryX=0.5;entryY=0;entryDx=0;entryDy=0;" parent="1" source="_9Bs-8DGk_cBSsAxComQ-1" target="UVAJHkN_hNqqy0k5uIBD-2" edge="1">
          <mxGeometry relative="1" as="geometry" />
        </mxCell>
        <mxCell id="_9Bs-8DGk_cBSsAxComQ-1" value="" style="shape=offPageConnector;whiteSpace=wrap;html=1;fillColor=#ffe6cc;strokeColor=#d79b00;" parent="1" vertex="1">
          <mxGeometry x="120" y="1210" width="40" height="50" as="geometry" />
        </mxCell>
        <mxCell id="2ia90omd5wCE71A1dKtK-3" style="edgeStyle=orthogonalEdgeStyle;rounded=0;orthogonalLoop=1;jettySize=auto;html=1;exitX=0.5;exitY=1;exitDx=0;exitDy=0;entryX=0.5;entryY=0;entryDx=0;entryDy=0;" parent="1" source="2ia90omd5wCE71A1dKtK-1" target="2ia90omd5wCE71A1dKtK-2" edge="1">
          <mxGeometry relative="1" as="geometry" />
        </mxCell>
        <mxCell id="2ia90omd5wCE71A1dKtK-1" value="" style="shape=offPageConnector;whiteSpace=wrap;html=1;fillColor=#d5e8d4;strokeColor=#82b366;" parent="1" vertex="1">
          <mxGeometry x="320" y="1210" width="40" height="50" as="geometry" />
        </mxCell>
        <mxCell id="2ia90omd5wCE71A1dKtK-2" value="" style="shape=offPageConnector;whiteSpace=wrap;html=1;fillColor=#d5e8d4;strokeColor=#82b366;" parent="1" vertex="1">
          <mxGeometry x="320" y="2240" width="40" height="50" as="geometry" />
        </mxCell>
        <mxCell id="8rr_IAGiVWdvV_jgiNx4-2" value="&lt;font style=&quot;font-size: 17px;&quot;&gt;No&lt;/font&gt;" style="edgeLabel;html=1;align=center;verticalAlign=middle;resizable=0;points=[];" parent="1" vertex="1" connectable="0">
          <mxGeometry x="590" y="1650" as="geometry">
            <mxPoint x="164" y="23" as="offset" />
          </mxGeometry>
        </mxCell>
        <mxCell id="FULLrduSCNNu4i-aCq_8-2" value="" style="shape=offPageConnector;whiteSpace=wrap;html=1;" parent="1" vertex="1">
          <mxGeometry x="220" y="2240" width="40" height="50" as="geometry" />
        </mxCell>
        <mxCell id="IFCx0sAwObZph2IbAVtg-54" value="generating the NLP model" style="swimlane;whiteSpace=wrap;html=1;fillColor=#d0cee2;strokeColor=#56517e;strokeWidth=3;" parent="1" vertex="1">
          <mxGeometry x="380" y="1354" width="310" height="800" as="geometry" />
        </mxCell>
        <mxCell id="5_6JH3T4y_eZD0mTEH8c-1" value="&lt;font style=&quot;font-size: 17px;&quot;&gt;Yes&lt;/font&gt;" style="edgeLabel;html=1;align=center;verticalAlign=middle;resizable=0;points=[];" parent="IFCx0sAwObZph2IbAVtg-54" vertex="1" connectable="0">
          <mxGeometry x="-70" y="744" as="geometry">
            <mxPoint x="182" y="-198" as="offset" />
          </mxGeometry>
        </mxCell>
        <mxCell id="bCheZO_WNE7GgX1z2HRE-3" style="edgeStyle=orthogonalEdgeStyle;rounded=0;orthogonalLoop=1;jettySize=auto;html=1;exitX=0.5;exitY=1;exitDx=0;exitDy=0;entryX=0.5;entryY=0;entryDx=0;entryDy=0;" parent="1" source="bCheZO_WNE7GgX1z2HRE-1" target="bCheZO_WNE7GgX1z2HRE-2" edge="1">
          <mxGeometry relative="1" as="geometry" />
        </mxCell>
        <mxCell id="bCheZO_WNE7GgX1z2HRE-1" value="" style="shape=offPageConnector;whiteSpace=wrap;html=1;direction=west;fillColor=#a0522d;strokeColor=#6D1F00;fontColor=#ffffff;" parent="1" vertex="1">
          <mxGeometry x="70" y="2240" width="40" height="50" as="geometry" />
        </mxCell>
        <mxCell id="bCheZO_WNE7GgX1z2HRE-2" value="" style="shape=offPageConnector;whiteSpace=wrap;html=1;direction=west;fillColor=#a0522d;strokeColor=#6D1F00;fontColor=#ffffff;" parent="1" vertex="1">
          <mxGeometry x="70" y="1210" width="40" height="50" as="geometry" />
        </mxCell>
      </root>
    </mxGraphModel>
  </diagram>
  <diagram id="Jcz0hBoOjD8R_uah4y3K" name="Seite-5">
    <mxGraphModel dx="2033" dy="-5" grid="1" gridSize="10" guides="1" tooltips="1" connect="1" arrows="1" fold="1" page="1" pageScale="1" pageWidth="827" pageHeight="1169" math="0" shadow="1">
      <root>
        <mxCell id="0" />
        <mxCell id="1" parent="0" />
        <mxCell id="FUqgJ8Dl9wlOtM3PAJ77-2" style="edgeStyle=orthogonalEdgeStyle;rounded=0;orthogonalLoop=1;jettySize=auto;html=1;exitX=0.75;exitY=1;exitDx=0;exitDy=0;entryX=0.5;entryY=0;entryDx=0;entryDy=0;" parent="1" source="oPK46vUUnoYxZ2hOcn98-21" target="FUqgJ8Dl9wlOtM3PAJ77-1" edge="1">
          <mxGeometry relative="1" as="geometry" />
        </mxCell>
        <mxCell id="q1dfKZygENBx6KdbDFth-2" style="edgeStyle=orthogonalEdgeStyle;rounded=0;orthogonalLoop=1;jettySize=auto;html=1;exitX=0.5;exitY=1;exitDx=0;exitDy=0;entryX=0.5;entryY=0;entryDx=0;entryDy=0;entryPerimeter=0;" parent="1" source="q1dfKZygENBx6KdbDFth-1" target="oPK46vUUnoYxZ2hOcn98-13" edge="1">
          <mxGeometry relative="1" as="geometry">
            <Array as="points">
              <mxPoint x="315" y="1249" />
            </Array>
          </mxGeometry>
        </mxCell>
        <mxCell id="D9KyVXN2AQfuAzVmWWBr-1" style="edgeStyle=orthogonalEdgeStyle;rounded=0;orthogonalLoop=1;jettySize=auto;html=1;exitX=0.5;exitY=1;exitDx=0;exitDy=0;entryX=0;entryY=0.5;entryDx=0;entryDy=0;entryPerimeter=0;" parent="1" source="EX-L1ETqYHxip3cAZNO2-1" target="oPK46vUUnoYxZ2hOcn98-13" edge="1">
          <mxGeometry relative="1" as="geometry" />
        </mxCell>
        <mxCell id="5VSot10NQrxx3GiTV-OH-2" style="edgeStyle=orthogonalEdgeStyle;rounded=0;orthogonalLoop=1;jettySize=auto;html=1;exitX=0.5;exitY=1;exitDx=0;exitDy=0;entryX=0;entryY=0.5;entryDx=0;entryDy=0;" parent="1" source="7r53D00sfCH4LtL-mGMw-1" target="oPK46vUUnoYxZ2hOcn98-8" edge="1">
          <mxGeometry relative="1" as="geometry" />
        </mxCell>
        <mxCell id="7r53D00sfCH4LtL-mGMw-1" value="" style="shape=offPageConnector;whiteSpace=wrap;html=1;" parent="1" vertex="1">
          <mxGeometry x="190" y="1169" width="40" height="50" as="geometry" />
        </mxCell>
        <mxCell id="EX-L1ETqYHxip3cAZNO2-1" value="" style="shape=offPageConnector;whiteSpace=wrap;html=1;fillColor=#b0e3e6;strokeColor=#0e8088;" parent="1" vertex="1">
          <mxGeometry x="110" y="1169" width="40" height="50" as="geometry" />
        </mxCell>
        <mxCell id="q1dfKZygENBx6KdbDFth-1" value="" style="shape=offPageConnector;whiteSpace=wrap;html=1;fillColor=#ffe6cc;strokeColor=#d79b00;" parent="1" vertex="1">
          <mxGeometry x="295" y="1169" width="40" height="50" as="geometry" />
        </mxCell>
        <mxCell id="88d_NPfcYjKpoxqN3yWD-2" style="edgeStyle=orthogonalEdgeStyle;rounded=0;orthogonalLoop=1;jettySize=auto;html=1;exitX=0.5;exitY=1;exitDx=0;exitDy=0;entryX=0.5;entryY=0;entryDx=0;entryDy=0;" parent="1" source="88d_NPfcYjKpoxqN3yWD-1" target="oPK46vUUnoYxZ2hOcn98-3" edge="1">
          <mxGeometry relative="1" as="geometry" />
        </mxCell>
        <mxCell id="88d_NPfcYjKpoxqN3yWD-1" value="" style="shape=offPageConnector;whiteSpace=wrap;html=1;fillColor=#e1d5e7;strokeColor=#9673a6;fontStyle=1" parent="1" vertex="1">
          <mxGeometry x="413" y="1169" width="40" height="50" as="geometry" />
        </mxCell>
        <mxCell id="oPK46vUUnoYxZ2hOcn98-37" value="candidate paper selection" style="swimlane;whiteSpace=wrap;html=1;fillColor=#fad9d5;strokeColor=#ae4132;strokeWidth=3;" parent="1" vertex="1">
          <mxGeometry x="83" y="1250" width="662" height="1014" as="geometry" />
        </mxCell>
        <mxCell id="oPK46vUUnoYxZ2hOcn98-31" value="last topic ?" style="strokeWidth=2;html=1;shape=mxgraph.flowchart.decision;whiteSpace=wrap;" parent="oPK46vUUnoYxZ2hOcn98-37" vertex="1">
          <mxGeometry x="176" y="910" width="100" height="100" as="geometry" />
        </mxCell>
        <mxCell id="oPK46vUUnoYxZ2hOcn98-5" style="edgeStyle=orthogonalEdgeStyle;rounded=0;orthogonalLoop=1;jettySize=auto;html=1;exitX=0.5;exitY=1;exitDx=0;exitDy=0;entryX=0.5;entryY=0;entryDx=0;entryDy=0;" parent="oPK46vUUnoYxZ2hOcn98-37" source="oPK46vUUnoYxZ2hOcn98-6" target="oPK46vUUnoYxZ2hOcn98-8" edge="1">
          <mxGeometry relative="1" as="geometry" />
        </mxCell>
        <mxCell id="oPK46vUUnoYxZ2hOcn98-8" value="calculate topic adherence" style="rounded=0;whiteSpace=wrap;html=1;" parent="oPK46vUUnoYxZ2hOcn98-37" vertex="1">
          <mxGeometry x="291" y="200" width="120" height="60" as="geometry" />
        </mxCell>
        <mxCell id="oPK46vUUnoYxZ2hOcn98-10" value="calculate importance metric" style="rounded=0;whiteSpace=wrap;html=1;" parent="oPK46vUUnoYxZ2hOcn98-37" vertex="1">
          <mxGeometry x="171" y="420" width="120" height="60" as="geometry" />
        </mxCell>
        <mxCell id="oPK46vUUnoYxZ2hOcn98-12" style="edgeStyle=orthogonalEdgeStyle;rounded=0;orthogonalLoop=1;jettySize=auto;html=1;exitX=0.5;exitY=1;exitDx=0;exitDy=0;exitPerimeter=0;" parent="oPK46vUUnoYxZ2hOcn98-37" source="oPK46vUUnoYxZ2hOcn98-13" target="oPK46vUUnoYxZ2hOcn98-10" edge="1">
          <mxGeometry relative="1" as="geometry" />
        </mxCell>
        <mxCell id="oPK46vUUnoYxZ2hOcn98-13" value="" style="strokeWidth=2;html=1;shape=mxgraph.flowchart.merge_or_storage;whiteSpace=wrap;" parent="oPK46vUUnoYxZ2hOcn98-37" vertex="1">
          <mxGeometry x="212" y="360" width="40" height="30" as="geometry" />
        </mxCell>
        <mxCell id="oPK46vUUnoYxZ2hOcn98-7" style="edgeStyle=orthogonalEdgeStyle;rounded=0;orthogonalLoop=1;jettySize=auto;html=1;exitX=0.5;exitY=1;exitDx=0;exitDy=0;entryX=1;entryY=0.5;entryDx=0;entryDy=0;entryPerimeter=0;" parent="oPK46vUUnoYxZ2hOcn98-37" source="oPK46vUUnoYxZ2hOcn98-8" target="oPK46vUUnoYxZ2hOcn98-13" edge="1">
          <mxGeometry relative="1" as="geometry" />
        </mxCell>
        <mxCell id="oPK46vUUnoYxZ2hOcn98-15" style="edgeStyle=orthogonalEdgeStyle;rounded=0;orthogonalLoop=1;jettySize=auto;html=1;exitX=1;exitY=0.5;exitDx=0;exitDy=0;exitPerimeter=0;" parent="oPK46vUUnoYxZ2hOcn98-37" source="oPK46vUUnoYxZ2hOcn98-19" edge="1">
          <mxGeometry relative="1" as="geometry">
            <mxPoint x="351" y="550" as="targetPoint" />
          </mxGeometry>
        </mxCell>
        <mxCell id="oPK46vUUnoYxZ2hOcn98-16" value="&lt;font style=&quot;font-size: 17px;&quot;&gt;Yes&lt;/font&gt;" style="edgeLabel;html=1;align=center;verticalAlign=middle;resizable=0;points=[];" parent="oPK46vUUnoYxZ2hOcn98-15" vertex="1" connectable="0">
          <mxGeometry x="-0.0464" relative="1" as="geometry">
            <mxPoint as="offset" />
          </mxGeometry>
        </mxCell>
        <mxCell id="oPK46vUUnoYxZ2hOcn98-17" style="edgeStyle=orthogonalEdgeStyle;rounded=0;orthogonalLoop=1;jettySize=auto;html=1;exitDx=0;exitDy=0;exitPerimeter=0;endArrow=none;endFill=0;" parent="oPK46vUUnoYxZ2hOcn98-37" edge="1">
          <mxGeometry relative="1" as="geometry">
            <mxPoint x="226" y="630" as="sourcePoint" />
            <mxPoint x="226" y="660" as="targetPoint" />
          </mxGeometry>
        </mxCell>
        <mxCell id="oPK46vUUnoYxZ2hOcn98-19" value="importance &lt;br&gt;metric is highest so far ?" style="strokeWidth=2;html=1;shape=mxgraph.flowchart.decision;whiteSpace=wrap;" parent="oPK46vUUnoYxZ2hOcn98-37" vertex="1">
          <mxGeometry x="176" y="500" width="100" height="100" as="geometry" />
        </mxCell>
        <mxCell id="oPK46vUUnoYxZ2hOcn98-9" style="edgeStyle=orthogonalEdgeStyle;rounded=0;orthogonalLoop=1;jettySize=auto;html=1;exitX=0.5;exitY=1;exitDx=0;exitDy=0;entryX=0.5;entryY=0;entryDx=0;entryDy=0;entryPerimeter=0;" parent="oPK46vUUnoYxZ2hOcn98-37" source="oPK46vUUnoYxZ2hOcn98-10" target="oPK46vUUnoYxZ2hOcn98-19" edge="1">
          <mxGeometry relative="1" as="geometry" />
        </mxCell>
        <mxCell id="oPK46vUUnoYxZ2hOcn98-43" style="edgeStyle=orthogonalEdgeStyle;rounded=0;orthogonalLoop=1;jettySize=auto;html=1;exitX=0.5;exitY=1;exitDx=0;exitDy=0;entryX=0.6;entryY=1;entryDx=0;entryDy=0;entryPerimeter=0;endArrow=none;endFill=0;" parent="oPK46vUUnoYxZ2hOcn98-37" source="oPK46vUUnoYxZ2hOcn98-21" edge="1">
          <mxGeometry relative="1" as="geometry">
            <mxPoint x="226" y="630" as="targetPoint" />
            <Array as="points">
              <mxPoint x="411" y="636" />
              <mxPoint x="226" y="636" />
            </Array>
          </mxGeometry>
        </mxCell>
        <mxCell id="oPK46vUUnoYxZ2hOcn98-21" value="add to candidate papers" style="rounded=0;whiteSpace=wrap;html=1;" parent="oPK46vUUnoYxZ2hOcn98-37" vertex="1">
          <mxGeometry x="351" y="520" width="120" height="60" as="geometry" />
        </mxCell>
        <mxCell id="oPK46vUUnoYxZ2hOcn98-6" value="get next doc" style="rounded=0;whiteSpace=wrap;html=1;" parent="oPK46vUUnoYxZ2hOcn98-37" vertex="1">
          <mxGeometry x="290" y="120" width="120" height="60" as="geometry" />
        </mxCell>
        <mxCell id="oPK46vUUnoYxZ2hOcn98-3" value="topic number =&lt;br&gt;iteration, restart document counter" style="shape=loopLimit;whiteSpace=wrap;html=1;" parent="oPK46vUUnoYxZ2hOcn98-37" vertex="1">
          <mxGeometry x="300" y="40" width="100" height="60" as="geometry" />
        </mxCell>
        <mxCell id="oPK46vUUnoYxZ2hOcn98-2" style="edgeStyle=orthogonalEdgeStyle;rounded=0;orthogonalLoop=1;jettySize=auto;html=1;exitX=0.5;exitY=1;exitDx=0;exitDy=0;entryX=0.5;entryY=0;entryDx=0;entryDy=0;" parent="oPK46vUUnoYxZ2hOcn98-37" source="oPK46vUUnoYxZ2hOcn98-3" target="oPK46vUUnoYxZ2hOcn98-6" edge="1">
          <mxGeometry relative="1" as="geometry" />
        </mxCell>
        <mxCell id="oPK46vUUnoYxZ2hOcn98-11" value="topic &lt;br&gt;adherence&lt;br&gt;per doc" style="shape=parallelogram;html=1;strokeWidth=2;perimeter=parallelogramPerimeter;whiteSpace=wrap;rounded=1;arcSize=12;size=0.23;" parent="oPK46vUUnoYxZ2hOcn98-37" vertex="1">
          <mxGeometry x="300" y="280" width="100" height="60" as="geometry" />
        </mxCell>
        <mxCell id="D9KyVXN2AQfuAzVmWWBr-2" style="edgeStyle=orthogonalEdgeStyle;rounded=0;orthogonalLoop=1;jettySize=auto;html=1;exitX=0.5;exitY=1;exitDx=0;exitDy=0;entryX=0.5;entryY=0;entryDx=0;entryDy=0;entryPerimeter=0;" parent="oPK46vUUnoYxZ2hOcn98-37" source="oPK46vUUnoYxZ2hOcn98-1" target="oPK46vUUnoYxZ2hOcn98-13" edge="1">
          <mxGeometry relative="1" as="geometry" />
        </mxCell>
        <mxCell id="oPK46vUUnoYxZ2hOcn98-1" value="&amp;nbsp; &amp;nbsp; &amp;nbsp; &amp;nbsp; &amp;nbsp; &amp;nbsp; &amp;nbsp; &amp;nbsp; weights &lt;br&gt;in imprtance &lt;br&gt;metric term" style="html=1;strokeWidth=2;shape=manualInput;whiteSpace=wrap;rounded=1;size=26;arcSize=11;" parent="oPK46vUUnoYxZ2hOcn98-37" vertex="1">
          <mxGeometry x="186" y="280" width="100" height="60" as="geometry" />
        </mxCell>
        <mxCell id="oPK46vUUnoYxZ2hOcn98-14" value="normalized citations per &lt;br&gt;doc" style="shape=parallelogram;html=1;strokeWidth=2;perimeter=parallelogramPerimeter;whiteSpace=wrap;rounded=1;arcSize=12;size=0.23;" parent="oPK46vUUnoYxZ2hOcn98-37" vertex="1">
          <mxGeometry x="30" y="280" width="100" height="60" as="geometry" />
        </mxCell>
        <mxCell id="oPK46vUUnoYxZ2hOcn98-26" value="last paper ?" style="strokeWidth=2;html=1;shape=mxgraph.flowchart.decision;whiteSpace=wrap;" parent="oPK46vUUnoYxZ2hOcn98-37" vertex="1">
          <mxGeometry x="175" y="660" width="100" height="100" as="geometry" />
        </mxCell>
        <mxCell id="oPK46vUUnoYxZ2hOcn98-22" style="edgeStyle=orthogonalEdgeStyle;rounded=0;orthogonalLoop=1;jettySize=auto;html=1;exitX=1;exitY=0.5;exitDx=0;exitDy=0;exitPerimeter=0;entryX=1;entryY=0.5;entryDx=0;entryDy=0;" parent="oPK46vUUnoYxZ2hOcn98-37" source="oPK46vUUnoYxZ2hOcn98-26" target="oPK46vUUnoYxZ2hOcn98-6" edge="1">
          <mxGeometry relative="1" as="geometry">
            <Array as="points">
              <mxPoint x="510" y="710" />
              <mxPoint x="510" y="150" />
            </Array>
            <mxPoint x="437" y="160" as="targetPoint" />
          </mxGeometry>
        </mxCell>
        <mxCell id="oPK46vUUnoYxZ2hOcn98-23" value="&lt;font style=&quot;font-size: 17px;&quot;&gt;No&lt;/font&gt;" style="edgeLabel;html=1;align=center;verticalAlign=middle;resizable=0;points=[];" parent="oPK46vUUnoYxZ2hOcn98-22" vertex="1" connectable="0">
          <mxGeometry x="0.2" y="1" relative="1" as="geometry">
            <mxPoint as="offset" />
          </mxGeometry>
        </mxCell>
        <mxCell id="oPK46vUUnoYxZ2hOcn98-27" style="edgeStyle=orthogonalEdgeStyle;rounded=0;orthogonalLoop=1;jettySize=auto;html=1;entryX=0.5;entryY=0;entryDx=0;entryDy=0;entryPerimeter=0;" parent="oPK46vUUnoYxZ2hOcn98-37" target="oPK46vUUnoYxZ2hOcn98-26" edge="1">
          <mxGeometry relative="1" as="geometry">
            <mxPoint x="225" y="630" as="sourcePoint" />
          </mxGeometry>
        </mxCell>
        <mxCell id="oPK46vUUnoYxZ2hOcn98-32" style="edgeStyle=orthogonalEdgeStyle;rounded=0;orthogonalLoop=1;jettySize=auto;html=1;exitX=0.5;exitY=1;exitDx=0;exitDy=0;exitPerimeter=0;entryX=0.5;entryY=0;entryDx=0;entryDy=0;entryPerimeter=0;" parent="oPK46vUUnoYxZ2hOcn98-37" source="oPK46vUUnoYxZ2hOcn98-33" edge="1">
          <mxGeometry relative="1" as="geometry">
            <mxPoint x="225" y="910" as="targetPoint" />
          </mxGeometry>
        </mxCell>
        <mxCell id="oPK46vUUnoYxZ2hOcn98-33" value="redrawing &lt;br&gt;single topic ?" style="strokeWidth=2;html=1;shape=mxgraph.flowchart.decision;whiteSpace=wrap;" parent="oPK46vUUnoYxZ2hOcn98-37" vertex="1">
          <mxGeometry x="175" y="780" width="100" height="100" as="geometry" />
        </mxCell>
        <mxCell id="oPK46vUUnoYxZ2hOcn98-34" value="&lt;font style=&quot;font-size: 17px;&quot;&gt;No&lt;/font&gt;" style="edgeLabel;html=1;align=center;verticalAlign=middle;resizable=0;points=[];" parent="oPK46vUUnoYxZ2hOcn98-37" vertex="1" connectable="0">
          <mxGeometry x="262" y="760" as="geometry">
            <mxPoint x="-21" y="128" as="offset" />
          </mxGeometry>
        </mxCell>
        <mxCell id="oPK46vUUnoYxZ2hOcn98-29" style="edgeStyle=orthogonalEdgeStyle;rounded=0;orthogonalLoop=1;jettySize=auto;html=1;exitX=1;exitY=0.5;exitDx=0;exitDy=0;exitPerimeter=0;entryX=1;entryY=0.5;entryDx=0;entryDy=0;" parent="oPK46vUUnoYxZ2hOcn98-37" target="oPK46vUUnoYxZ2hOcn98-3" edge="1">
          <mxGeometry relative="1" as="geometry">
            <Array as="points">
              <mxPoint x="550" y="960" />
              <mxPoint x="550" y="70" />
            </Array>
            <mxPoint x="275" y="960" as="sourcePoint" />
          </mxGeometry>
        </mxCell>
        <mxCell id="oPK46vUUnoYxZ2hOcn98-30" value="&lt;font style=&quot;font-size: 17px;&quot;&gt;No&lt;/font&gt;" style="edgeLabel;html=1;align=center;verticalAlign=middle;resizable=0;points=[];" parent="oPK46vUUnoYxZ2hOcn98-29" vertex="1" connectable="0">
          <mxGeometry x="0.0281" y="-2" relative="1" as="geometry">
            <mxPoint as="offset" />
          </mxGeometry>
        </mxCell>
        <mxCell id="oPK46vUUnoYxZ2hOcn98-24" style="edgeStyle=orthogonalEdgeStyle;rounded=0;orthogonalLoop=1;jettySize=auto;html=1;exitX=0.5;exitY=1;exitDx=0;exitDy=0;exitPerimeter=0;entryX=0.5;entryY=0;entryDx=0;entryDy=0;entryPerimeter=0;" parent="oPK46vUUnoYxZ2hOcn98-37" source="oPK46vUUnoYxZ2hOcn98-26" target="oPK46vUUnoYxZ2hOcn98-33" edge="1">
          <mxGeometry relative="1" as="geometry" />
        </mxCell>
        <mxCell id="oPK46vUUnoYxZ2hOcn98-25" value="&lt;font style=&quot;font-size: 17px;&quot;&gt;Yes&lt;/font&gt;" style="edgeLabel;html=1;align=center;verticalAlign=middle;resizable=0;points=[];" parent="oPK46vUUnoYxZ2hOcn98-24" vertex="1" connectable="0">
          <mxGeometry x="-0.3333" y="-3" relative="1" as="geometry">
            <mxPoint x="24" y="-1" as="offset" />
          </mxGeometry>
        </mxCell>
        <mxCell id="oPK46vUUnoYxZ2hOcn98-41" value="" style="edgeStyle=orthogonalEdgeStyle;rounded=0;orthogonalLoop=1;jettySize=auto;html=1;exitX=0.5;exitY=1;exitDx=0;exitDy=0;exitPerimeter=0;endArrow=none;endFill=0;" parent="oPK46vUUnoYxZ2hOcn98-37" source="oPK46vUUnoYxZ2hOcn98-19" edge="1">
          <mxGeometry relative="1" as="geometry">
            <mxPoint x="226" y="600" as="sourcePoint" />
            <mxPoint x="226" y="630" as="targetPoint" />
          </mxGeometry>
        </mxCell>
        <mxCell id="oPK46vUUnoYxZ2hOcn98-42" value="&lt;font style=&quot;font-size: 17px;&quot;&gt;No&lt;/font&gt;" style="edgeLabel;html=1;align=center;verticalAlign=middle;resizable=0;points=[];" parent="oPK46vUUnoYxZ2hOcn98-41" vertex="1" connectable="0">
          <mxGeometry x="-0.4" y="3" relative="1" as="geometry">
            <mxPoint x="-3" y="1" as="offset" />
          </mxGeometry>
        </mxCell>
        <mxCell id="oPK46vUUnoYxZ2hOcn98-4" value="Theta array" style="shape=parallelogram;html=1;strokeWidth=2;perimeter=parallelogramPerimeter;whiteSpace=wrap;rounded=1;arcSize=12;size=0.23;" parent="oPK46vUUnoYxZ2hOcn98-37" vertex="1">
          <mxGeometry x="101" y="100" width="100" height="60" as="geometry" />
        </mxCell>
        <mxCell id="oPK46vUUnoYxZ2hOcn98-36" value="candidate papers" style="strokeWidth=2;html=1;shape=mxgraph.flowchart.multi-document;whiteSpace=wrap;" parent="oPK46vUUnoYxZ2hOcn98-37" vertex="1">
          <mxGeometry x="394" y="780" width="88" height="60" as="geometry" />
        </mxCell>
        <mxCell id="NgXdLPeZLaCxJy8jpw4I-2" style="edgeStyle=orthogonalEdgeStyle;rounded=0;orthogonalLoop=1;jettySize=auto;html=1;exitX=0.5;exitY=1;exitDx=0;exitDy=0;entryX=1;entryY=0;entryDx=0;entryDy=0;" parent="1" source="NgXdLPeZLaCxJy8jpw4I-1" target="oPK46vUUnoYxZ2hOcn98-6" edge="1">
          <mxGeometry relative="1" as="geometry">
            <Array as="points">
              <mxPoint x="540" y="1370" />
            </Array>
          </mxGeometry>
        </mxCell>
        <mxCell id="NgXdLPeZLaCxJy8jpw4I-1" value="" style="shape=offPageConnector;whiteSpace=wrap;html=1;fillColor=#d5e8d4;strokeColor=#82b366;" parent="1" vertex="1">
          <mxGeometry x="520" y="1169" width="40" height="50" as="geometry" />
        </mxCell>
        <mxCell id="id6fFZASo4Tz32FWTVkK-1" value="" style="shape=offPageConnector;whiteSpace=wrap;html=1;fillColor=#b0e3e6;strokeColor=#0e8088;" parent="1" vertex="1">
          <mxGeometry x="289" y="2288" width="40" height="50" as="geometry" />
        </mxCell>
        <mxCell id="VhPFdAsETmDgAKhRUWu--1" style="edgeStyle=orthogonalEdgeStyle;rounded=0;orthogonalLoop=1;jettySize=auto;html=1;exitX=0.5;exitY=1;exitDx=0;exitDy=0;exitPerimeter=0;entryX=0.5;entryY=0;entryDx=0;entryDy=0;" parent="1" source="oPK46vUUnoYxZ2hOcn98-31" target="id6fFZASo4Tz32FWTVkK-1" edge="1">
          <mxGeometry relative="1" as="geometry">
            <Array as="points">
              <mxPoint x="309" y="2270" />
              <mxPoint x="310" y="2270" />
            </Array>
          </mxGeometry>
        </mxCell>
        <mxCell id="oPK46vUUnoYxZ2hOcn98-35" value="&lt;font style=&quot;font-size: 17px;&quot;&gt;Yes&lt;/font&gt;" style="edgeLabel;html=1;align=center;verticalAlign=middle;resizable=0;points=[];" parent="1" vertex="1" connectable="0">
          <mxGeometry x="420" y="2140" as="geometry">
            <mxPoint x="-96" y="128" as="offset" />
          </mxGeometry>
        </mxCell>
        <mxCell id="FUqgJ8Dl9wlOtM3PAJ77-1" value="" style="shape=offPageConnector;whiteSpace=wrap;html=1;fillColor=#e1d5e7;strokeColor=#9673a6;fontStyle=1;size=0.4;" parent="1" vertex="1">
          <mxGeometry x="505" y="2288" width="40" height="50" as="geometry" />
        </mxCell>
        <mxCell id="HvAqQcB8jNqaLnYLGIyZ-1" value="" style="shape=offPageConnector;whiteSpace=wrap;html=1;fillColor=#f8cecc;strokeColor=#b85450;" parent="1" vertex="1">
          <mxGeometry x="390" y="2288" width="41" height="50" as="geometry" />
        </mxCell>
        <mxCell id="HvAqQcB8jNqaLnYLGIyZ-2" style="edgeStyle=orthogonalEdgeStyle;rounded=0;orthogonalLoop=1;jettySize=auto;html=1;exitX=1;exitY=0.5;exitDx=0;exitDy=0;exitPerimeter=0;entryX=0.5;entryY=0;entryDx=0;entryDy=0;" parent="1" source="oPK46vUUnoYxZ2hOcn98-33" target="HvAqQcB8jNqaLnYLGIyZ-1" edge="1">
          <mxGeometry relative="1" as="geometry" />
        </mxCell>
        <mxCell id="HvAqQcB8jNqaLnYLGIyZ-3" value="&lt;font style=&quot;font-size: 17px;&quot;&gt;Yes&lt;/font&gt;" style="edgeLabel;html=1;align=center;verticalAlign=middle;resizable=0;points=[];" parent="1" vertex="1" connectable="0">
          <mxGeometry x="410" y="2150" as="geometry" />
        </mxCell>
        <mxCell id="qRJ6VEs8gbAGhUPy-S1U-3" style="edgeStyle=orthogonalEdgeStyle;rounded=0;orthogonalLoop=1;jettySize=auto;html=1;exitX=0.5;exitY=1;exitDx=0;exitDy=0;entryX=1;entryY=0.75;entryDx=0;entryDy=0;" parent="1" source="qRJ6VEs8gbAGhUPy-S1U-1" target="oPK46vUUnoYxZ2hOcn98-6" edge="1">
          <mxGeometry relative="1" as="geometry" />
        </mxCell>
        <mxCell id="qRJ6VEs8gbAGhUPy-S1U-1" value="" style="shape=offPageConnector;whiteSpace=wrap;html=1;fillColor=#fff2cc;strokeColor=#d6b656;fontStyle=1;size=0.4;direction=west;" parent="1" vertex="1">
          <mxGeometry x="670" y="2288" width="40" height="50" as="geometry" />
        </mxCell>
        <mxCell id="0nHN_8Tzam8Kr4mjOdVp-3" style="edgeStyle=orthogonalEdgeStyle;rounded=0;orthogonalLoop=1;jettySize=auto;html=1;exitX=0.5;exitY=1;exitDx=0;exitDy=0;entryX=0.5;entryY=0;entryDx=0;entryDy=0;" parent="1" source="0nHN_8Tzam8Kr4mjOdVp-1" target="0nHN_8Tzam8Kr4mjOdVp-2" edge="1">
          <mxGeometry relative="1" as="geometry" />
        </mxCell>
        <mxCell id="0nHN_8Tzam8Kr4mjOdVp-1" value="" style="shape=offPageConnector;whiteSpace=wrap;html=1;direction=west;fillColor=#a0522d;strokeColor=#6D1F00;fontColor=#ffffff;" parent="1" vertex="1">
          <mxGeometry x="20" y="2288" width="40" height="50" as="geometry" />
        </mxCell>
        <mxCell id="0nHN_8Tzam8Kr4mjOdVp-2" value="" style="shape=offPageConnector;whiteSpace=wrap;html=1;direction=west;fillColor=#a0522d;strokeColor=#6D1F00;fontColor=#ffffff;" parent="1" vertex="1">
          <mxGeometry x="20" y="1169" width="40" height="50" as="geometry" />
        </mxCell>
      </root>
    </mxGraphModel>
  </diagram>
  <diagram id="MvnSHVx_b1eryn67EISL" name="Seite-6">
    <mxGraphModel dx="2033" dy="-1174" grid="1" gridSize="10" guides="1" tooltips="1" connect="1" arrows="1" fold="1" page="1" pageScale="1" pageWidth="827" pageHeight="1169" math="0" shadow="1">
      <root>
        <mxCell id="0" />
        <mxCell id="1" parent="0" />
        <mxCell id="GR2pxY2s4y5E9bKPlFMs-3" style="edgeStyle=orthogonalEdgeStyle;rounded=0;orthogonalLoop=1;jettySize=auto;html=1;exitX=0;exitY=0.5;exitDx=0;exitDy=0;exitPerimeter=0;entryX=0.5;entryY=0;entryDx=0;entryDy=0;" parent="1" source="zLUkpFQ91TNNrc1k30M0-14" target="GR2pxY2s4y5E9bKPlFMs-2" edge="1">
          <mxGeometry relative="1" as="geometry" />
        </mxCell>
        <mxCell id="zLUkpFQ91TNNrc1k30M0-19" style="edgeStyle=orthogonalEdgeStyle;rounded=0;orthogonalLoop=1;jettySize=auto;html=1;exitX=0.5;exitY=1;exitDx=0;exitDy=0;entryX=0;entryY=0;entryDx=69.375;entryDy=0;entryPerimeter=0;" parent="1" source="i9cEyqB-9eO3e2cvc4lQ-1" target="zLUkpFQ91TNNrc1k30M0-2" edge="1">
          <mxGeometry relative="1" as="geometry" />
        </mxCell>
        <mxCell id="i9cEyqB-9eO3e2cvc4lQ-1" value="" style="shape=offPageConnector;whiteSpace=wrap;html=1;fillColor=#b0e3e6;strokeColor=#0e8088;" parent="1" vertex="1">
          <mxGeometry x="270" y="2500" width="40" height="50" as="geometry" />
        </mxCell>
        <mxCell id="zLUkpFQ91TNNrc1k30M0-20" style="edgeStyle=orthogonalEdgeStyle;rounded=0;orthogonalLoop=1;jettySize=auto;html=1;exitX=0.5;exitY=1;exitDx=0;exitDy=0;entryX=1;entryY=0.5;entryDx=0;entryDy=0;entryPerimeter=0;" parent="1" source="2JrFlA6W69etNc293iNY-1" target="zLUkpFQ91TNNrc1k30M0-2" edge="1">
          <mxGeometry relative="1" as="geometry" />
        </mxCell>
        <mxCell id="2JrFlA6W69etNc293iNY-1" value="" style="shape=offPageConnector;whiteSpace=wrap;html=1;fillColor=#f8cecc;strokeColor=#b85450;" parent="1" vertex="1">
          <mxGeometry x="355" y="2500" width="41" height="50" as="geometry" />
        </mxCell>
        <mxCell id="GR2pxY2s4y5E9bKPlFMs-1" style="edgeStyle=orthogonalEdgeStyle;rounded=0;orthogonalLoop=1;jettySize=auto;html=1;exitX=0.5;exitY=1;exitDx=0;exitDy=0;entryX=0.956;entryY=1;entryDx=0;entryDy=0;entryPerimeter=0;" parent="1" source="Fu7UkbjX_Gbhh-T_dBkH-1" target="zLUkpFQ91TNNrc1k30M0-2" edge="1">
          <mxGeometry relative="1" as="geometry" />
        </mxCell>
        <mxCell id="Fu7UkbjX_Gbhh-T_dBkH-1" value="" style="shape=offPageConnector;whiteSpace=wrap;html=1;fillColor=#e1d5e7;strokeColor=#9673a6;fontStyle=1;size=0.4;" parent="1" vertex="1">
          <mxGeometry x="445" y="2500" width="40" height="50" as="geometry" />
        </mxCell>
        <mxCell id="Fr6zhP3aNhmc_hfi3erc-1" value="" style="shape=offPageConnector;whiteSpace=wrap;html=1;fillColor=#fff2cc;strokeColor=#d6b656;fontStyle=1;size=0.4;direction=west;" parent="1" vertex="1">
          <mxGeometry x="545" y="2500" width="40" height="50" as="geometry" />
        </mxCell>
        <mxCell id="zLUkpFQ91TNNrc1k30M0-5" value="paper selection" style="swimlane;whiteSpace=wrap;html=1;fillColor=#bac8d3;strokeColor=#23445d;strokeWidth=3;" parent="1" vertex="1">
          <mxGeometry x="100" y="2610" width="590" height="740" as="geometry" />
        </mxCell>
        <mxCell id="zLUkpFQ91TNNrc1k30M0-6" value="accept all canidate &lt;br&gt;papers ?" style="strokeWidth=2;html=1;shape=mxgraph.flowchart.decision;whiteSpace=wrap;" parent="zLUkpFQ91TNNrc1k30M0-5" vertex="1">
          <mxGeometry x="140" y="430" width="100" height="100" as="geometry" />
        </mxCell>
        <mxCell id="zLUkpFQ91TNNrc1k30M0-7" value="set topic number to rejected candidate paper, restart document counter" style="rounded=0;whiteSpace=wrap;html=1;" parent="zLUkpFQ91TNNrc1k30M0-5" vertex="1">
          <mxGeometry x="405" y="450" width="120" height="60" as="geometry" />
        </mxCell>
        <mxCell id="zLUkpFQ91TNNrc1k30M0-8" style="edgeStyle=orthogonalEdgeStyle;rounded=0;orthogonalLoop=1;jettySize=auto;html=1;exitX=1;exitY=0.5;exitDx=0;exitDy=0;exitPerimeter=0;entryX=0;entryY=0.5;entryDx=0;entryDy=0;" parent="zLUkpFQ91TNNrc1k30M0-5" source="zLUkpFQ91TNNrc1k30M0-6" target="zLUkpFQ91TNNrc1k30M0-7" edge="1">
          <mxGeometry relative="1" as="geometry" />
        </mxCell>
        <mxCell id="zLUkpFQ91TNNrc1k30M0-9" value="END" style="strokeWidth=2;html=1;shape=mxgraph.flowchart.terminator;whiteSpace=wrap;" parent="zLUkpFQ91TNNrc1k30M0-5" vertex="1">
          <mxGeometry x="140" y="680" width="100" height="60" as="geometry" />
        </mxCell>
        <mxCell id="zLUkpFQ91TNNrc1k30M0-10" style="edgeStyle=orthogonalEdgeStyle;rounded=0;orthogonalLoop=1;jettySize=auto;html=1;exitX=0.5;exitY=1;exitDx=0;exitDy=0;exitPerimeter=0;entryX=0.5;entryY=0;entryDx=0;entryDy=0;entryPerimeter=0;" parent="zLUkpFQ91TNNrc1k30M0-5" source="zLUkpFQ91TNNrc1k30M0-6" target="zLUkpFQ91TNNrc1k30M0-9" edge="1">
          <mxGeometry relative="1" as="geometry" />
        </mxCell>
        <mxCell id="zLUkpFQ91TNNrc1k30M0-11" value="selected&lt;br&gt;papers" style="strokeWidth=2;html=1;shape=mxgraph.flowchart.multi-document;whiteSpace=wrap;" parent="zLUkpFQ91TNNrc1k30M0-5" vertex="1">
          <mxGeometry x="146" y="560" width="88" height="60" as="geometry" />
        </mxCell>
        <mxCell id="zLUkpFQ91TNNrc1k30M0-12" value="&lt;font style=&quot;font-size: 17px;&quot;&gt;No&lt;/font&gt;" style="edgeLabel;html=1;align=center;verticalAlign=middle;resizable=0;points=[];" parent="zLUkpFQ91TNNrc1k30M0-5" vertex="1" connectable="0">
          <mxGeometry x="345" y="350" as="geometry">
            <mxPoint x="-21" y="128" as="offset" />
          </mxGeometry>
        </mxCell>
        <mxCell id="zLUkpFQ91TNNrc1k30M0-13" style="edgeStyle=orthogonalEdgeStyle;rounded=0;orthogonalLoop=1;jettySize=auto;html=1;exitX=0.5;exitY=1;exitDx=0;exitDy=0;exitPerimeter=0;entryX=0.5;entryY=0;entryDx=0;entryDy=0;entryPerimeter=0;" parent="zLUkpFQ91TNNrc1k30M0-5" source="zLUkpFQ91TNNrc1k30M0-14" target="zLUkpFQ91TNNrc1k30M0-6" edge="1">
          <mxGeometry relative="1" as="geometry" />
        </mxCell>
        <mxCell id="zLUkpFQ91TNNrc1k30M0-14" value="too many false&lt;br&gt;positives ?" style="strokeWidth=2;html=1;shape=mxgraph.flowchart.decision;whiteSpace=wrap;" parent="zLUkpFQ91TNNrc1k30M0-5" vertex="1">
          <mxGeometry x="140" y="280" width="100" height="100" as="geometry" />
        </mxCell>
        <mxCell id="zLUkpFQ91TNNrc1k30M0-15" value="&lt;font style=&quot;font-size: 17px;&quot;&gt;No&lt;/font&gt;" style="edgeLabel;html=1;align=center;verticalAlign=middle;resizable=0;points=[];" parent="zLUkpFQ91TNNrc1k30M0-5" vertex="1" connectable="0">
          <mxGeometry x="210" y="270" as="geometry">
            <mxPoint x="-21" y="128" as="offset" />
          </mxGeometry>
        </mxCell>
        <mxCell id="zLUkpFQ91TNNrc1k30M0-16" value="&lt;font style=&quot;font-size: 17px;&quot;&gt;Yes&lt;/font&gt;" style="edgeLabel;html=1;align=center;verticalAlign=middle;resizable=0;points=[];" parent="zLUkpFQ91TNNrc1k30M0-5" vertex="1" connectable="0">
          <mxGeometry x="190" y="650" as="geometry" />
        </mxCell>
        <mxCell id="zLUkpFQ91TNNrc1k30M0-2" value="candidate papers" style="shape=display;whiteSpace=wrap;html=1;" parent="zLUkpFQ91TNNrc1k30M0-5" vertex="1">
          <mxGeometry x="120" y="50" width="135" height="60" as="geometry" />
        </mxCell>
        <mxCell id="zLUkpFQ91TNNrc1k30M0-4" value="evaluate all &lt;br&gt;candidate papers" style="verticalLabelPosition=middle;verticalAlign=middle;html=1;shape=trapezoid;perimeter=trapezoidPerimeter;whiteSpace=wrap;size=0.23;arcSize=10;flipV=1;labelPosition=center;align=center;" parent="zLUkpFQ91TNNrc1k30M0-5" vertex="1">
          <mxGeometry x="125" y="150" width="130" height="90" as="geometry" />
        </mxCell>
        <mxCell id="zLUkpFQ91TNNrc1k30M0-3" style="edgeStyle=orthogonalEdgeStyle;rounded=0;orthogonalLoop=1;jettySize=auto;html=1;exitX=0.5;exitY=1;exitDx=0;exitDy=0;entryX=0.5;entryY=0;entryDx=0;entryDy=0;entryPerimeter=0;" parent="zLUkpFQ91TNNrc1k30M0-5" source="zLUkpFQ91TNNrc1k30M0-4" target="zLUkpFQ91TNNrc1k30M0-14" edge="1">
          <mxGeometry relative="1" as="geometry" />
        </mxCell>
        <mxCell id="zLUkpFQ91TNNrc1k30M0-1" style="edgeStyle=orthogonalEdgeStyle;rounded=0;orthogonalLoop=1;jettySize=auto;html=1;exitX=0;exitY=0;exitDx=69.375;exitDy=60;exitPerimeter=0;entryX=0.5;entryY=0;entryDx=0;entryDy=0;" parent="zLUkpFQ91TNNrc1k30M0-5" source="zLUkpFQ91TNNrc1k30M0-2" target="zLUkpFQ91TNNrc1k30M0-4" edge="1">
          <mxGeometry relative="1" as="geometry" />
        </mxCell>
        <mxCell id="zLUkpFQ91TNNrc1k30M0-17" value="&lt;font style=&quot;font-size: 17px;&quot;&gt;Yes&lt;/font&gt;" style="edgeLabel;html=1;align=center;verticalAlign=middle;resizable=0;points=[];" parent="1" vertex="1" connectable="0">
          <mxGeometry x="189" y="2940" as="geometry" />
        </mxCell>
        <mxCell id="zLUkpFQ91TNNrc1k30M0-18" style="edgeStyle=orthogonalEdgeStyle;rounded=0;orthogonalLoop=1;jettySize=auto;html=1;exitX=0.5;exitY=0;exitDx=0;exitDy=0;entryX=0.5;entryY=0;entryDx=0;entryDy=0;" parent="1" source="zLUkpFQ91TNNrc1k30M0-7" target="Fr6zhP3aNhmc_hfi3erc-1" edge="1">
          <mxGeometry relative="1" as="geometry" />
        </mxCell>
        <mxCell id="GR2pxY2s4y5E9bKPlFMs-2" value="" style="shape=offPageConnector;whiteSpace=wrap;html=1;direction=west;fillColor=#a0522d;strokeColor=#6D1F00;fontColor=#ffffff;" parent="1" vertex="1">
          <mxGeometry x="110" y="2500" width="40" height="50" as="geometry" />
        </mxCell>
      </root>
    </mxGraphModel>
  </diagram>
  <diagram id="8jzh7OgGZo-vguQgyFGT" name="Seite-7">
    <mxGraphModel dx="2033" dy="1164" grid="1" gridSize="10" guides="1" tooltips="1" connect="1" arrows="1" fold="1" page="1" pageScale="1" pageWidth="827" pageHeight="1169" math="0" shadow="1">
      <root>
        <mxCell id="0" />
        <mxCell id="1" parent="0" />
        <mxCell id="ea-CrBJ33DmCmmzmXgAL-1" value="NLP preproccessing" style="swimlane;whiteSpace=wrap;html=1;fillColor=#ffe6cc;strokeColor=#d79b00;strokeWidth=3;" parent="1" vertex="1">
          <mxGeometry x="60" y="40" width="690" height="980" as="geometry" />
        </mxCell>
        <mxCell id="sL3PqDPhEVWHzjK8g3cH-10" style="edgeStyle=orthogonalEdgeStyle;rounded=0;orthogonalLoop=1;jettySize=auto;html=1;exitX=0.5;exitY=1;exitDx=0;exitDy=0;exitPerimeter=0;entryX=0.5;entryY=0;entryDx=0;entryDy=0;" parent="ea-CrBJ33DmCmmzmXgAL-1" source="kqsAG_IJAV3WFLAloz-l-1" target="sL3PqDPhEVWHzjK8g3cH-1" edge="1">
          <mxGeometry relative="1" as="geometry" />
        </mxCell>
        <mxCell id="kqsAG_IJAV3WFLAloz-l-1" value="START" style="strokeWidth=2;html=1;shape=mxgraph.flowchart.start_1;whiteSpace=wrap;" parent="ea-CrBJ33DmCmmzmXgAL-1" vertex="1">
          <mxGeometry x="294" y="70" width="100" height="60" as="geometry" />
        </mxCell>
        <mxCell id="sL3PqDPhEVWHzjK8g3cH-11" style="edgeStyle=orthogonalEdgeStyle;rounded=0;orthogonalLoop=1;jettySize=auto;html=1;exitX=0.5;exitY=1;exitDx=0;exitDy=0;entryX=0.5;entryY=0;entryDx=0;entryDy=0;" parent="ea-CrBJ33DmCmmzmXgAL-1" source="sL3PqDPhEVWHzjK8g3cH-1" target="sL3PqDPhEVWHzjK8g3cH-2" edge="1">
          <mxGeometry relative="1" as="geometry" />
        </mxCell>
        <mxCell id="sL3PqDPhEVWHzjK8g3cH-1" value="remove punctuation" style="rounded=0;whiteSpace=wrap;html=1;" parent="ea-CrBJ33DmCmmzmXgAL-1" vertex="1">
          <mxGeometry x="284" y="180" width="120" height="60" as="geometry" />
        </mxCell>
        <mxCell id="sL3PqDPhEVWHzjK8g3cH-12" style="edgeStyle=orthogonalEdgeStyle;rounded=0;orthogonalLoop=1;jettySize=auto;html=1;exitX=0.5;exitY=1;exitDx=0;exitDy=0;entryX=0.5;entryY=0;entryDx=0;entryDy=0;" parent="ea-CrBJ33DmCmmzmXgAL-1" source="sL3PqDPhEVWHzjK8g3cH-2" target="sL3PqDPhEVWHzjK8g3cH-3" edge="1">
          <mxGeometry relative="1" as="geometry" />
        </mxCell>
        <mxCell id="sL3PqDPhEVWHzjK8g3cH-2" value="lowercase all tokens" style="rounded=0;whiteSpace=wrap;html=1;" parent="ea-CrBJ33DmCmmzmXgAL-1" vertex="1">
          <mxGeometry x="284" y="280" width="120" height="60" as="geometry" />
        </mxCell>
        <mxCell id="sL3PqDPhEVWHzjK8g3cH-13" style="edgeStyle=orthogonalEdgeStyle;rounded=0;orthogonalLoop=1;jettySize=auto;html=1;exitX=0.5;exitY=1;exitDx=0;exitDy=0;entryX=0.5;entryY=0;entryDx=0;entryDy=0;" parent="ea-CrBJ33DmCmmzmXgAL-1" source="sL3PqDPhEVWHzjK8g3cH-3" target="sL3PqDPhEVWHzjK8g3cH-4" edge="1">
          <mxGeometry relative="1" as="geometry" />
        </mxCell>
        <mxCell id="sL3PqDPhEVWHzjK8g3cH-3" value="remove numerics" style="rounded=0;whiteSpace=wrap;html=1;" parent="ea-CrBJ33DmCmmzmXgAL-1" vertex="1">
          <mxGeometry x="284" y="380" width="120" height="60" as="geometry" />
        </mxCell>
        <mxCell id="sL3PqDPhEVWHzjK8g3cH-14" value="" style="edgeStyle=orthogonalEdgeStyle;rounded=0;orthogonalLoop=1;jettySize=auto;html=1;" parent="ea-CrBJ33DmCmmzmXgAL-1" source="sL3PqDPhEVWHzjK8g3cH-4" target="sL3PqDPhEVWHzjK8g3cH-5" edge="1">
          <mxGeometry relative="1" as="geometry" />
        </mxCell>
        <mxCell id="sL3PqDPhEVWHzjK8g3cH-4" value="add bigrams" style="rounded=0;whiteSpace=wrap;html=1;" parent="ea-CrBJ33DmCmmzmXgAL-1" vertex="1">
          <mxGeometry x="284" y="484.5" width="120" height="60" as="geometry" />
        </mxCell>
        <mxCell id="sL3PqDPhEVWHzjK8g3cH-15" style="edgeStyle=orthogonalEdgeStyle;rounded=0;orthogonalLoop=1;jettySize=auto;html=1;exitX=0.5;exitY=1;exitDx=0;exitDy=0;entryX=0.5;entryY=0;entryDx=0;entryDy=0;" parent="ea-CrBJ33DmCmmzmXgAL-1" source="sL3PqDPhEVWHzjK8g3cH-5" target="sL3PqDPhEVWHzjK8g3cH-8" edge="1">
          <mxGeometry relative="1" as="geometry" />
        </mxCell>
        <mxCell id="sL3PqDPhEVWHzjK8g3cH-5" value="remove query keyword tokens" style="rounded=0;whiteSpace=wrap;html=1;" parent="ea-CrBJ33DmCmmzmXgAL-1" vertex="1">
          <mxGeometry x="284" y="590" width="120" height="60" as="geometry" />
        </mxCell>
        <mxCell id="sL3PqDPhEVWHzjK8g3cH-17" style="edgeStyle=orthogonalEdgeStyle;rounded=0;orthogonalLoop=1;jettySize=auto;html=1;exitX=0.5;exitY=1;exitDx=0;exitDy=0;entryX=0.5;entryY=0;entryDx=0;entryDy=0;entryPerimeter=0;" parent="ea-CrBJ33DmCmmzmXgAL-1" source="sL3PqDPhEVWHzjK8g3cH-6" target="sL3PqDPhEVWHzjK8g3cH-9" edge="1">
          <mxGeometry relative="1" as="geometry" />
        </mxCell>
        <mxCell id="sL3PqDPhEVWHzjK8g3cH-6" value="remove stopword tokens" style="rounded=0;whiteSpace=wrap;html=1;" parent="ea-CrBJ33DmCmmzmXgAL-1" vertex="1">
          <mxGeometry x="284" y="810" width="120" height="60" as="geometry" />
        </mxCell>
        <mxCell id="sL3PqDPhEVWHzjK8g3cH-16" style="edgeStyle=orthogonalEdgeStyle;rounded=0;orthogonalLoop=1;jettySize=auto;html=1;exitX=0.5;exitY=1;exitDx=0;exitDy=0;entryX=0.5;entryY=0;entryDx=0;entryDy=0;" parent="ea-CrBJ33DmCmmzmXgAL-1" source="sL3PqDPhEVWHzjK8g3cH-8" target="sL3PqDPhEVWHzjK8g3cH-6" edge="1">
          <mxGeometry relative="1" as="geometry" />
        </mxCell>
        <mxCell id="sL3PqDPhEVWHzjK8g3cH-8" value="remove scientific stopword tokens" style="rounded=0;whiteSpace=wrap;html=1;" parent="ea-CrBJ33DmCmmzmXgAL-1" vertex="1">
          <mxGeometry x="284" y="700" width="120" height="60" as="geometry" />
        </mxCell>
        <mxCell id="sL3PqDPhEVWHzjK8g3cH-9" value="END" style="strokeWidth=2;html=1;shape=mxgraph.flowchart.terminator;whiteSpace=wrap;" parent="ea-CrBJ33DmCmmzmXgAL-1" vertex="1">
          <mxGeometry x="294" y="910" width="100" height="60" as="geometry" />
        </mxCell>
      </root>
    </mxGraphModel>
  </diagram>
</mxfile>
